<svg width="388" height="265" viewBox="0 0 388 265" fill="none" xmlns="http://www.w3.org/2000/svg">
<path d="M30.2465 193.117C32.3175 187.086 33.6488 180.825 34.2112 174.474C34.9303 164.755 30.2281 149.865 21.5887 144.877C12.9494 139.889 8.29326 146.057 11.1792 151.331C14.0651 156.605 23.8385 171.615 23.9676 184.524L30.2465 193.117Z" fill="#EE0033"/>
<path d="M27.2401 192.905H27.1663C27.0444 192.884 26.9355 192.817 26.863 192.717C26.7906 192.617 26.7604 192.492 26.779 192.37V192.25C28.0497 185.193 28.1867 177.978 27.1847 170.878C25.7187 158.523 21.6526 152.806 17.9646 148.842C17.9001 148.751 17.8707 148.64 17.8815 148.529C17.8924 148.419 17.943 148.316 18.0238 148.239C18.1046 148.163 18.2104 148.118 18.3215 148.114C18.4326 148.109 18.5416 148.145 18.6284 148.215C22.4917 152.281 26.6315 158.145 28.1344 170.767C29.4529 181.831 28.4479 187.963 27.7103 192.407V192.527C27.6923 192.637 27.6343 192.736 27.5475 192.806C27.4607 192.875 27.3512 192.911 27.2401 192.905Z" fill="white"/>
<path d="M25.3325 198.649C24.4104 194.094 21.0359 188.977 14.5633 185.962C8.09072 182.947 1.41531 181.195 0.207471 177.313C-1.00037 173.432 3.10261 168.942 11.5483 170.859C19.994 172.777 29.0666 185.289 28.5411 193.725L25.3325 198.649Z" fill="#EE0033"/>
<path d="M27.2426 196.168C27.1326 196.168 27.0262 196.129 26.942 196.058C26.8578 195.987 26.801 195.889 26.7816 195.781C25.0574 184.348 15.3578 175.617 7.73273 174.934C7.67247 174.93 7.61375 174.913 7.56004 174.885C7.50633 174.858 7.45872 174.819 7.42004 174.773C7.38135 174.727 7.35237 174.673 7.33481 174.615C7.31726 174.557 7.31148 174.497 7.31782 174.436C7.32954 174.315 7.38803 174.203 7.48095 174.124C7.57386 174.044 7.6939 174.005 7.81571 174.012C15.7819 174.731 25.9057 183.786 27.6944 195.643C27.7105 195.764 27.6791 195.886 27.6068 195.984C27.5346 196.082 27.4272 196.148 27.3072 196.168H27.2426Z" fill="white"/>
<path d="M341.336 111.076C341.336 111.076 337.039 101.561 337.74 93.4099C338.459 85.1117 341.428 77.2561 348.509 71.7701C355.59 66.2841 361.076 68.7736 362.238 70.7744C363.4 72.7751 363.428 76.7398 358.163 81.0456C352.898 85.3515 347.145 97.1072 348.777 108.854L346.361 115.723L341.336 111.076Z" fill="#EE0033"/>
<path d="M343.919 111.979C343.836 111.979 343.754 111.957 343.683 111.915C343.611 111.873 343.553 111.812 343.513 111.739C341.724 108.439 341.448 94.7282 344.343 87.057C347.865 77.7262 354.208 72.4522 358.975 70.6359C359.032 70.6086 359.095 70.5935 359.158 70.5915C359.222 70.5894 359.285 70.6005 359.344 70.624C359.402 70.6474 359.456 70.6828 359.501 70.7278C359.545 70.7729 359.58 70.8267 359.603 70.8858C359.626 70.945 359.636 71.0082 359.634 71.0716C359.631 71.1349 359.615 71.1971 359.587 71.2541C359.56 71.3111 359.52 71.3618 359.472 71.403C359.424 71.4441 359.368 71.4749 359.307 71.4933C354.697 73.2452 348.612 78.3439 345.2 87.3797C342.434 94.7558 342.646 108.208 344.278 111.297C344.317 111.367 344.336 111.446 344.335 111.526C344.333 111.606 344.311 111.685 344.27 111.754C344.229 111.823 344.171 111.88 344.101 111.919C344.031 111.959 343.953 111.979 343.873 111.979H343.919Z" fill="white"/>
<path d="M361.685 130.926C362.404 126.187 362.524 123.274 366.941 120.379C371.357 117.483 375.239 115.418 375.598 111.278C375.958 107.138 373.183 102.464 373.33 98.8495C373.478 95.2352 375.681 93.5479 380.347 90.3669C385.012 87.1859 389.798 81.7645 385.215 77.9012C380.633 74.038 373.791 77.6246 370.684 80.3261C367.577 83.0276 365.041 84.0142 360.265 82.751C355.489 81.4879 350.824 84.7887 351.967 90.874C353.111 96.9593 352.511 99.7346 348.676 99.5225C344.84 99.3105 339.179 103.266 343.697 112.486L361.685 130.926Z" fill="#EE0033"/>
<path d="M351.956 121.411H351.901C351.779 121.395 351.669 121.332 351.593 121.236C351.517 121.139 351.482 121.017 351.495 120.895C353.69 102.455 371.945 82.7513 380.244 79.8838C380.302 79.8557 380.366 79.8403 380.432 79.8387C380.497 79.8371 380.561 79.8493 380.621 79.8746C380.682 79.8998 380.736 79.9375 380.78 79.9852C380.824 80.0328 380.858 80.0893 380.879 80.151C380.9 80.2127 380.908 80.2781 380.902 80.3429C380.896 80.4078 380.876 80.4706 380.844 80.5273C380.811 80.5839 380.768 80.6331 380.715 80.6716C380.663 80.7101 380.602 80.737 380.539 80.7505C372.425 83.5166 354.565 102.934 352.408 121.006C352.396 121.117 352.344 121.221 352.26 121.296C352.177 121.371 352.068 121.412 351.956 121.411Z" fill="white"/>
<path d="M359.859 101.099C359.759 101.098 359.663 101.065 359.584 101.005C359.504 100.945 359.446 100.862 359.416 100.767C358.203 96.6266 357.336 92.3922 356.825 88.1079C356.819 88.0473 356.825 87.9862 356.843 87.9279C356.86 87.8697 356.889 87.8155 356.928 87.7684C356.966 87.7213 357.014 87.6822 357.067 87.6535C357.121 87.6247 357.18 87.6068 357.24 87.6007C357.301 87.5947 357.362 87.6006 357.42 87.6182C357.479 87.6358 357.533 87.6647 357.58 87.7032C357.627 87.7417 357.666 87.7891 357.695 87.8427C357.723 87.8964 357.741 87.9551 357.747 88.0157C358.246 92.2414 359.101 96.4176 360.301 100.5C360.336 100.616 360.323 100.741 360.267 100.848C360.21 100.955 360.113 101.035 359.997 101.071L359.859 101.099Z" fill="white"/>
<path d="M354.704 111.048C354.582 111.072 354.455 111.047 354.351 110.978C354.248 110.909 354.176 110.801 354.151 110.679C354.127 110.557 354.152 110.43 354.221 110.326C354.29 110.222 354.398 110.15 354.52 110.126C359.684 107.932 365.452 107.606 370.83 109.204C370.946 109.246 371.04 109.331 371.093 109.441C371.147 109.551 371.155 109.678 371.116 109.794C371.076 109.908 370.993 110.003 370.884 110.056C370.776 110.11 370.65 110.118 370.535 110.08C365.359 108.586 359.827 108.912 354.861 111.002C354.812 111.027 354.759 111.043 354.704 111.048Z" fill="white"/>
<path d="M231.32 19.4644L208.851 6.49164L186.39 19.4644L208.851 32.4372L231.32 19.4644Z" fill="#F5F5F5"/>
<path d="M208.85 58.3825L231.32 45.4097V19.4641L208.85 32.4369V58.3825Z" fill="#EBEBEB"/>
<path d="M213.184 49.7891C213.064 49.7869 212.947 49.7552 212.843 49.6969C212.7 49.5917 212.587 49.4516 212.515 49.2902C212.442 49.1287 212.412 48.9513 212.428 48.7749V46.0089V45.806H212.566L214.724 44.5336V47.6132C214.717 48.0077 214.617 48.395 214.431 48.743C214.245 49.091 213.979 49.3896 213.654 49.614C213.517 49.7147 213.354 49.7753 213.184 49.7891ZM212.769 46.2209V48.7657C212.753 48.8828 212.767 49.0022 212.811 49.1121C212.854 49.222 212.926 49.3187 213.018 49.3927C213.093 49.4272 213.177 49.4411 213.259 49.433C213.342 49.4249 213.421 49.3951 213.488 49.3466C213.763 49.1529 213.99 48.898 214.15 48.6021C214.31 48.3061 214.399 47.9771 214.41 47.6408V47.4103H213.608L213.451 46.3316L212.769 46.2209ZM213.912 47.0231H214.41V45.179L213.129 45.9351L213.765 46.0457L213.912 47.0231Z" fill="white"/>
<path d="M213.572 51.9649C213.526 51.9649 213.481 51.9465 213.448 51.9136C213.415 51.8808 213.397 51.8362 213.397 51.7897V49.4847C213.397 49.4382 213.415 49.3937 213.448 49.3608C213.481 49.328 213.526 49.3095 213.572 49.3095C213.618 49.3095 213.663 49.328 213.696 49.3608C213.729 49.3937 213.747 49.4382 213.747 49.4847V51.7897C213.747 51.8362 213.729 51.8808 213.696 51.9136C213.663 51.9465 213.618 51.9649 213.572 51.9649Z" fill="white"/>
<path d="M212.567 52.5549C212.537 52.5555 212.507 52.5482 212.482 52.5336C212.456 52.519 212.434 52.4977 212.419 52.4719C212.408 52.4519 212.4 52.4299 212.397 52.407C212.394 52.3841 212.396 52.3609 212.402 52.3386C212.408 52.3163 212.418 52.2955 212.432 52.2772C212.446 52.2589 212.464 52.2436 212.484 52.2322L214.484 51.0704C214.504 51.0589 214.526 51.0515 214.549 51.0485C214.572 51.0455 214.595 51.047 214.618 51.053C214.64 51.059 214.661 51.0693 214.679 51.0834C214.697 51.0975 214.713 51.115 214.724 51.135C214.736 51.1549 214.743 51.177 214.746 51.1998C214.749 51.2227 214.748 51.2459 214.742 51.2682C214.736 51.2904 214.725 51.3113 214.711 51.3296C214.697 51.3479 214.68 51.3632 214.66 51.3747L212.659 52.5549H212.567Z" fill="white"/>
<path d="M219.723 48.572C219.655 48.5709 219.588 48.5518 219.53 48.5167C219.462 48.4721 219.407 48.4101 219.371 48.3371C219.336 48.2641 219.32 48.1828 219.327 48.1017V47.6315C219.321 47.6058 219.321 47.5791 219.327 47.5533C219.332 47.5276 219.344 47.5034 219.36 47.4827C219.377 47.4621 219.398 47.4454 219.421 47.4339C219.445 47.4224 219.471 47.4164 219.498 47.4164C219.524 47.4164 219.55 47.4224 219.574 47.4339C219.598 47.4454 219.618 47.4621 219.635 47.4827C219.651 47.5034 219.663 47.5276 219.668 47.5533C219.674 47.5791 219.674 47.6058 219.668 47.6315V48.1017C219.654 48.1405 219.654 48.1829 219.668 48.2216C219.668 48.2216 219.723 48.2216 219.779 48.2216C219.886 48.1224 219.971 48.0008 220.027 47.8654C220.082 47.7301 220.108 47.5841 220.101 47.4379V44.3399C220.101 44.2935 220.12 44.2489 220.153 44.216C220.186 44.1832 220.23 44.1647 220.277 44.1647C220.323 44.1647 220.368 44.1832 220.4 44.216C220.433 44.2489 220.452 44.2935 220.452 44.3399V47.4102C220.461 47.6167 220.42 47.8222 220.333 48.0098C220.247 48.1974 220.117 48.3617 219.954 48.489C219.885 48.5344 219.806 48.5629 219.723 48.572Z" fill="white"/>
<path d="M217.896 45.8794V45.5844C217.938 44.8176 218.161 44.0715 218.545 43.4067C218.929 42.7419 219.465 42.1771 220.109 41.758C220.339 41.5643 220.623 41.4462 220.923 41.4195C221.222 41.3929 221.523 41.459 221.784 41.609C222.044 41.759 222.253 41.9856 222.38 42.258C222.508 42.5304 222.549 42.8355 222.497 43.1318V43.2332L217.896 45.8794ZM221.141 41.7857C220.837 41.7996 220.542 41.8917 220.284 42.0531C219.738 42.4152 219.276 42.8895 218.927 43.4443C218.579 43.9992 218.353 44.6219 218.265 45.2709L222.146 43.0304C222.162 42.8127 222.121 42.5946 222.027 42.3975C221.934 42.2003 221.79 42.0308 221.612 41.9055C221.468 41.8243 221.306 41.7829 221.141 41.7857Z" fill="white"/>
<path d="M225.9 45.0315C225.854 45.0293 225.811 45.0101 225.778 44.9778C225.746 44.9454 225.727 44.9021 225.725 44.8564V38.9739C225.727 38.9281 225.746 38.8849 225.778 38.8525C225.811 38.8201 225.854 38.8009 225.9 38.7987C225.946 38.7987 225.991 38.8172 226.024 38.85C226.056 38.8829 226.075 38.9274 226.075 38.9739V44.8564C226.075 44.9028 226.056 44.9474 226.024 44.9802C225.991 45.0131 225.946 45.0315 225.9 45.0315Z" fill="white"/>
<path d="M225.42 40.32H225.355C225.334 40.311 225.315 40.2978 225.299 40.2814C225.283 40.2649 225.27 40.2453 225.261 40.2239C225.253 40.2025 225.249 40.1796 225.249 40.1565C225.249 40.1335 225.254 40.1107 225.263 40.0895L225.881 38.6696L226.563 39.4626C226.58 39.4788 226.593 39.4982 226.602 39.5196C226.611 39.541 226.615 39.5639 226.615 39.587C226.615 39.6102 226.611 39.6331 226.602 39.6545C226.593 39.6758 226.58 39.6952 226.563 39.7115C226.531 39.742 226.488 39.7589 226.443 39.7589C226.399 39.7589 226.356 39.742 226.324 39.7115L226.001 39.3335L225.595 40.2555C225.576 40.2826 225.549 40.3032 225.518 40.3147C225.486 40.3262 225.452 40.3281 225.42 40.32Z" fill="white"/>
<path d="M227.532 44.118C227.508 44.1193 227.485 44.1157 227.463 44.1074C227.441 44.099 227.421 44.0862 227.405 44.0696C227.388 44.0531 227.376 44.0332 227.367 44.0114C227.359 43.9895 227.355 43.9661 227.357 43.9428V38.0603C227.351 38.0346 227.35 38.0079 227.356 37.9821C227.362 37.9564 227.373 37.9322 227.39 37.9115C227.406 37.8909 227.427 37.8742 227.451 37.8627C227.475 37.8512 227.501 37.8452 227.527 37.8452C227.554 37.8452 227.58 37.8512 227.603 37.8627C227.627 37.8742 227.648 37.8909 227.664 37.9115C227.681 37.9322 227.692 37.9564 227.698 37.9821C227.704 38.0079 227.704 38.0346 227.698 38.0603V43.9428C227.699 43.9654 227.696 43.9879 227.688 44.0091C227.68 44.0304 227.668 44.0498 227.652 44.0662C227.637 44.0826 227.618 44.0956 227.597 44.1045C227.577 44.1134 227.554 44.118 227.532 44.118Z" fill="white"/>
<path d="M227.024 39.4068H226.951C226.931 39.3978 226.913 39.3849 226.897 39.3689C226.882 39.3529 226.871 39.3341 226.863 39.3135C226.855 39.2929 226.852 39.271 226.852 39.249C226.853 39.227 226.858 39.2054 226.868 39.1855L227.476 37.7563L228.168 38.5493C228.198 38.5847 228.214 38.6309 228.21 38.6776C228.207 38.7243 228.185 38.7677 228.149 38.7982C228.114 38.8288 228.068 38.844 228.021 38.8406C227.974 38.8371 227.931 38.8152 227.9 38.7798L227.578 38.4018L227.181 39.3238C227.165 39.3503 227.142 39.372 227.114 39.3866C227.087 39.4012 227.056 39.4081 227.024 39.4068Z" fill="white"/>
<path d="M208.849 58.3825L186.38 45.4097L186.389 19.4641L208.849 32.4369V58.3825Z" fill="#E0E0E0"/>
<path d="M198.837 26.6555L221.298 13.6735L218.753 12.1983L196.292 25.1803L198.837 26.6555Z" fill="white"/>
<path d="M189.801 34.3364L197.841 38.9465C198.306 39.2498 198.692 39.6583 198.969 40.1389C199.246 40.6195 199.406 41.1586 199.436 41.7125V46.673C199.436 47.6872 198.726 48.1021 197.841 47.595L189.801 42.9849C189.335 42.6831 188.946 42.2752 188.667 41.7944C188.388 41.3137 188.227 40.7738 188.197 40.2188V35.2584C188.197 34.2442 188.916 33.8293 189.801 34.3364Z" fill="#EE0033"/>
<path d="M189.174 35.5811L189.478 35.7563V41.27L189.174 41.0856V35.5811Z" fill="#EE0033"/>
<path d="M190.42 36.3004L190.946 36.6046V42.1183L190.42 41.8048V36.3004Z" fill="#EE0033"/>
<path d="M191.664 37.0099L191.969 37.1943V42.6987L191.664 42.5236V37.0099Z" fill="#EE0033"/>
<path d="M192.605 37.5448L193.213 37.9044V43.4181L192.605 43.0585V37.5448Z" fill="#EE0033"/>
<path d="M194.154 38.4478L194.458 38.623V44.1367L194.154 43.9615V38.4478Z" fill="#EE0033"/>
<path d="M195.048 38.9553L195.703 39.3425V44.8562L195.048 44.4689V38.9553Z" fill="#EE0033"/>
<path d="M196.634 39.8865L196.947 40.0617V45.5754L196.634 45.391V39.8865Z" fill="#EE0033"/>
<path d="M197.344 40.2921L197.501 40.3751V45.8888L197.344 45.7966V40.2921Z" fill="#EE0033"/>
<path d="M196.071 39.5823L196.228 39.6745V45.1882L196.071 45.096V39.5823Z" fill="#EE0033"/>
<path d="M193.563 38.1164L193.72 38.2086V43.713L193.563 43.6301V38.1164Z" fill="#EE0033"/>
<path d="M192.19 37.3325L192.347 37.4154V42.9291L192.19 42.8369V37.3325Z" fill="#EE0033"/>
<path d="M191.211 36.7887L191.359 36.8717V42.3853L191.211 42.2931V36.7887Z" fill="#EE0033"/>
<path d="M189.875 35.977L190.022 36.06V41.5736L189.875 41.4814V35.977Z" fill="#EE0033"/>
<path d="M197.879 40.6058L198.193 40.781L198.183 46.2854L197.879 46.1102V40.6058Z" fill="#EE0033"/>
<path d="M201.365 15.1395L175.143 0L148.93 15.1395L175.143 30.2698L201.365 15.1395Z" fill="#F5F5F5"/>
<path d="M163.912 23.7884L190.125 8.64887L187.58 7.18286L161.367 22.3132L163.912 23.7884Z" fill="white"/>
<path d="M175.141 77.8463L201.364 62.7068V15.1399L175.141 30.2702V77.8463Z" fill="#EBEBEB"/>
<path d="M179.476 69.2345C179.357 69.2344 179.24 69.2059 179.135 69.1516C178.992 69.0463 178.879 68.9063 178.807 68.7448C178.734 68.5833 178.704 68.4059 178.72 68.2296V65.4635V65.2607H178.858L181.016 63.9975V67.0678C181.011 67.4639 180.911 67.8531 180.725 68.2028C180.539 68.5525 180.272 68.8525 179.946 69.0778C179.807 69.172 179.644 69.2262 179.476 69.2345ZM179.061 65.6663V68.2296C179.046 68.348 179.06 68.4684 179.104 68.5796C179.147 68.6908 179.218 68.7892 179.31 68.8657C179.382 68.9045 179.463 68.9248 179.545 68.9248C179.627 68.9248 179.708 68.9045 179.78 68.8657C180.055 68.6701 180.282 68.4136 180.442 68.1161C180.602 67.8187 180.691 67.4883 180.702 67.1508V66.9295H179.909L179.743 65.8507L179.061 65.6663ZM180.167 66.5146H180.665V64.6706L179.384 65.4174L180.02 65.5373L180.167 66.5146Z" fill="white"/>
<path d="M179.862 71.4291C179.815 71.4291 179.771 71.4106 179.738 71.3778C179.705 71.3449 179.687 71.3004 179.687 71.2539V68.9489C179.687 68.9024 179.705 68.8579 179.738 68.825C179.771 68.7921 179.815 68.7737 179.862 68.7737C179.908 68.7737 179.953 68.7921 179.986 68.825C180.019 68.8579 180.037 68.9024 180.037 68.9489V71.2539C180.037 71.3004 180.019 71.3449 179.986 71.3778C179.953 71.4106 179.908 71.4291 179.862 71.4291Z" fill="white"/>
<path d="M178.876 72.0099C178.846 72.0079 178.816 71.9984 178.791 71.9823C178.765 71.9662 178.743 71.944 178.728 71.9177C178.717 71.8985 178.71 71.8771 178.707 71.8549C178.704 71.8328 178.705 71.8103 178.711 71.7887C178.717 71.7672 178.728 71.7471 178.742 71.7297C178.756 71.7122 178.773 71.6978 178.793 71.6872L180.803 70.5255C180.822 70.5141 180.843 70.5068 180.866 70.5039C180.888 70.501 180.91 70.5026 180.932 70.5087C180.953 70.5147 180.973 70.525 180.991 70.539C181.008 70.553 181.023 70.5703 181.033 70.59C181.054 70.6308 181.059 70.678 181.047 70.7224C181.036 70.7667 181.007 70.805 180.969 70.8297L178.968 71.9823C178.941 72.0009 178.909 72.0106 178.876 72.0099Z" fill="white"/>
<path d="M186.012 68.0266C185.952 68.0446 185.888 68.0446 185.828 68.0266C185.757 67.984 185.7 67.9226 185.663 67.8493C185.625 67.776 185.609 67.6938 185.616 67.6117V67.1415C185.616 67.095 185.634 67.0505 185.667 67.0176C185.7 66.9848 185.744 66.9663 185.791 66.9663C185.837 66.9663 185.882 66.9848 185.915 67.0176C185.948 67.0505 185.966 67.095 185.966 67.1415V67.6117C185.953 67.6507 185.953 67.6926 185.966 67.7316C186.002 67.7429 186.041 67.7429 186.077 67.7316C186.184 67.6341 186.269 67.5142 186.325 67.3803C186.38 67.2465 186.406 67.102 186.399 66.9571V63.8038C186.399 63.7573 186.418 63.7128 186.451 63.6799C186.484 63.6471 186.528 63.6286 186.575 63.6286C186.621 63.6286 186.666 63.6471 186.699 63.6799C186.731 63.7128 186.75 63.7573 186.75 63.8038V66.8741C186.757 67.0803 186.716 67.2854 186.629 67.4727C186.543 67.6601 186.414 67.8246 186.252 67.9529C186.18 67.9979 186.097 68.0233 186.012 68.0266Z" fill="white"/>
<path d="M184.196 65.3434V65.0484C184.237 64.2811 184.458 63.5343 184.841 62.8681C185.224 62.2018 185.758 61.6348 186.4 61.2128C186.631 61.018 186.916 60.8992 187.217 60.8726C187.517 60.846 187.819 60.9129 188.08 61.0643C188.342 61.2156 188.55 61.4439 188.677 61.7181C188.803 61.9922 188.842 62.2987 188.788 62.5958V62.6972L184.196 65.3434ZM187.442 61.2497C187.135 61.2652 186.837 61.3571 186.575 61.517C186.029 61.8792 185.567 62.3534 185.219 62.9083C184.87 63.4632 184.644 64.0858 184.556 64.7349L188.438 62.4944C188.454 62.2765 188.413 62.0582 188.32 61.8609C188.226 61.6636 188.082 61.4942 187.903 61.3695C187.762 61.2899 187.603 61.2485 187.442 61.2497Z" fill="white"/>
<path d="M192.217 64.5413C192.172 64.539 192.13 64.5195 192.099 64.4869C192.068 64.4543 192.051 64.4111 192.051 64.3662V58.4376C192.045 58.4119 192.045 58.3851 192.051 58.3594C192.057 58.3336 192.068 58.3095 192.085 58.2888C192.101 58.2681 192.122 58.2514 192.146 58.2399C192.169 58.2284 192.196 58.2225 192.222 58.2225C192.248 58.2225 192.274 58.2284 192.298 58.2399C192.322 58.2514 192.343 58.2681 192.359 58.2888C192.376 58.3095 192.387 58.3336 192.393 58.3594C192.399 58.3851 192.399 58.4119 192.393 58.4376V64.3201C192.4 64.3466 192.401 64.3744 192.395 64.4013C192.39 64.4282 192.378 64.4535 192.361 64.475C192.344 64.4965 192.322 64.5138 192.297 64.5253C192.272 64.5368 192.245 64.5423 192.217 64.5413Z" fill="white"/>
<path d="M191.711 59.775H191.646C191.625 59.7659 191.606 59.7528 191.59 59.7363C191.574 59.7198 191.561 59.7003 191.552 59.6789C191.544 59.6575 191.54 59.6346 191.54 59.6115C191.54 59.5884 191.545 59.5657 191.554 59.5445L192.172 58.1246L192.854 58.9175C192.885 58.95 192.902 58.9928 192.902 59.0374C192.902 59.0819 192.885 59.1248 192.854 59.1572C192.838 59.1737 192.819 59.1867 192.797 59.1956C192.776 59.2046 192.753 59.2091 192.73 59.2091C192.707 59.2091 192.684 59.2046 192.662 59.1956C192.641 59.1867 192.622 59.1737 192.605 59.1572L192.283 58.7884L191.886 59.7104C191.866 59.7366 191.839 59.7566 191.808 59.768C191.777 59.7794 191.743 59.7818 191.711 59.775Z" fill="white"/>
<path d="M193.821 63.6195C193.774 63.6195 193.729 63.601 193.697 63.5681C193.664 63.5353 193.645 63.4907 193.645 63.4443V57.5249C193.639 57.4992 193.639 57.4725 193.645 57.4467C193.651 57.421 193.662 57.3968 193.679 57.3761C193.695 57.3555 193.716 57.3388 193.74 57.3273C193.763 57.3158 193.789 57.3098 193.816 57.3098C193.842 57.3098 193.868 57.3158 193.892 57.3273C193.916 57.3388 193.937 57.3555 193.953 57.3761C193.97 57.3968 193.981 57.421 193.987 57.4467C193.993 57.4725 193.992 57.4992 193.986 57.5249V63.4074C193.992 63.4325 193.992 63.4585 193.986 63.4836C193.98 63.5086 193.969 63.5321 193.953 63.5523C193.937 63.5726 193.917 63.5891 193.894 63.6007C193.871 63.6123 193.846 63.6187 193.821 63.6195Z" fill="white"/>
<path d="M193.315 58.862H193.241C193.2 58.8421 193.168 58.8068 193.153 58.7637C193.137 58.7206 193.139 58.6732 193.158 58.6315L193.767 57.2116L194.458 58.0045C194.475 58.0208 194.488 58.0402 194.497 58.0616C194.505 58.083 194.51 58.1059 194.51 58.129C194.51 58.1522 194.505 58.1751 194.497 58.1964C194.488 58.2178 194.475 58.2372 194.458 58.2535C194.423 58.2828 194.379 58.2988 194.334 58.2988C194.288 58.2988 194.244 58.2828 194.209 58.2535L193.886 57.8755L193.49 58.7975C193.471 58.8246 193.444 58.8452 193.412 58.8567C193.381 58.8682 193.347 58.8701 193.315 58.862Z" fill="white"/>
<path d="M175.143 77.8463L148.93 62.7068V15.1399L175.143 30.2702V77.8463Z" fill="#E0E0E0"/>
<path d="M154.26 52.8132L162.309 57.4233C162.773 57.7266 163.16 58.1351 163.437 58.6157C163.714 59.0963 163.874 59.6354 163.904 60.1893V65.1866C163.904 66.2009 163.185 66.6158 162.309 66.1087L154.26 61.4986C153.795 61.1952 153.409 60.7867 153.132 60.3061C152.854 59.8256 152.694 59.2865 152.664 58.7325V53.7352C152.664 52.721 153.384 52.3061 154.26 52.8132Z" fill="#F5F5F5"/>
<path d="M153.641 54.0577L153.945 54.2329V59.7465L153.641 59.5621V54.0577Z" fill="#E0E0E0"/>
<path d="M154.887 54.7769L155.412 55.0812V60.5948L154.887 60.2814V54.7769Z" fill="#E0E0E0"/>
<path d="M156.129 55.487L156.433 55.6714V61.1758L156.129 61.0007V55.487Z" fill="#E0E0E0"/>
<path d="M157.061 56.0219L157.679 56.3814V61.8951L157.061 61.5355V56.0219Z" fill="#E0E0E0"/>
<path d="M158.619 56.9257L158.924 57.1008V62.6145L158.619 62.4393V56.9257Z" fill="#E0E0E0"/>
<path d="M159.515 57.4329L160.169 57.8201V63.3338L159.515 62.9465V57.4329Z" fill="#E0E0E0"/>
<path d="M161.099 58.3641L161.413 58.5393V64.053L161.099 63.8778V58.3641Z" fill="#E0E0E0"/>
<path d="M161.809 58.7695L161.966 58.8525V64.3661L161.809 64.2739V58.7695Z" fill="#E0E0E0"/>
<path d="M160.538 58.0594L160.685 58.1516V63.6653L160.538 63.573V58.0594Z" fill="#E0E0E0"/>
<path d="M158.029 56.5932L158.185 56.6854V62.1898L158.029 62.1069V56.5932Z" fill="#E0E0E0"/>
<path d="M156.656 55.8101L156.812 55.893V61.4067L156.656 61.3145V55.8101Z" fill="#E0E0E0"/>
<path d="M155.669 55.2657L155.826 55.3487V60.8624L155.669 60.7702V55.2657Z" fill="#E0E0E0"/>
<path d="M154.334 54.4546L154.491 54.5376V60.0512L154.334 59.959V54.4546Z" fill="#E0E0E0"/>
<path d="M162.345 59.0831L162.649 59.2583V64.772L162.345 64.5876V59.0831Z" fill="#E0E0E0"/>
<path d="M161.367 28.4537L163.912 29.9197V23.7883L161.367 22.313V28.4537Z" fill="#F0F0F0"/>
<path d="M122.716 64.8729L103.99 54.0577L77.7675 69.1972L96.4937 80.0032L122.716 64.8729Z" fill="#F5F5F5"/>
<path d="M96.4941 123.256L122.716 108.116V64.8736L96.4941 80.0039V123.256Z" fill="#EBEBEB"/>
<path d="M100.828 114.644C100.709 114.645 100.592 114.617 100.487 114.561C100.343 114.456 100.229 114.317 100.155 114.155C100.081 113.994 100.049 113.816 100.063 113.639V110.873V110.643H100.21L102.358 109.379V112.487C102.355 112.882 102.258 113.271 102.073 113.621C101.889 113.97 101.623 114.271 101.298 114.497C101.158 114.588 100.995 114.639 100.828 114.644ZM100.413 111.076V113.621C100.398 113.739 100.412 113.859 100.456 113.971C100.499 114.082 100.57 114.18 100.662 114.257C100.738 114.289 100.822 114.301 100.904 114.291C100.987 114.282 101.065 114.251 101.132 114.202C101.408 114.009 101.635 113.754 101.796 113.458C101.956 113.162 102.044 112.832 102.054 112.496V112.275H101.252L101.095 111.196L100.413 111.076ZM101.519 111.924H102.017V110.08L100.726 110.827L101.372 110.947L101.519 111.924Z" fill="white"/>
<path d="M101.216 116.839C101.169 116.839 101.125 116.82 101.092 116.787C101.059 116.754 101.041 116.71 101.041 116.663V114.331C101.041 114.284 101.059 114.24 101.092 114.207C101.125 114.174 101.169 114.156 101.216 114.156C101.262 114.156 101.307 114.174 101.34 114.207C101.373 114.24 101.391 114.284 101.391 114.331V116.636C101.395 116.661 101.394 116.687 101.387 116.711C101.38 116.736 101.367 116.759 101.351 116.778C101.334 116.797 101.313 116.813 101.29 116.823C101.267 116.834 101.241 116.839 101.216 116.839Z" fill="white"/>
<path d="M100.21 117.42C100.18 117.419 100.15 117.41 100.124 117.393C100.098 117.377 100.077 117.355 100.063 117.328C100.051 117.308 100.044 117.287 100.041 117.265C100.038 117.243 100.04 117.22 100.046 117.199C100.052 117.177 100.062 117.157 100.076 117.14C100.09 117.122 100.107 117.108 100.127 117.097L102.128 115.935C102.148 115.924 102.17 115.916 102.193 115.913C102.216 115.91 102.239 115.912 102.261 115.918C102.283 115.924 102.304 115.934 102.323 115.948C102.341 115.962 102.356 115.98 102.368 116C102.389 116.041 102.394 116.088 102.382 116.132C102.37 116.177 102.342 116.215 102.303 116.24L100.293 117.392C100.269 117.41 100.24 117.419 100.21 117.42Z" fill="white"/>
<path d="M107.366 113.408C107.302 113.427 107.235 113.427 107.172 113.408C107.105 113.363 107.051 113.301 107.015 113.228C106.979 113.155 106.964 113.074 106.969 112.993V112.486C106.968 112.463 106.972 112.44 106.98 112.418C106.988 112.396 107.001 112.376 107.018 112.36C107.034 112.343 107.054 112.33 107.076 112.322C107.098 112.313 107.121 112.31 107.144 112.311C107.167 112.311 107.189 112.316 107.21 112.325C107.231 112.334 107.25 112.347 107.265 112.363C107.281 112.379 107.293 112.399 107.3 112.42C107.308 112.441 107.312 112.464 107.31 112.486V112.957C107.296 112.995 107.296 113.038 107.31 113.076C107.347 113.087 107.385 113.087 107.421 113.076C107.528 112.979 107.613 112.859 107.669 112.725C107.725 112.591 107.75 112.447 107.744 112.302V109.222C107.744 109.176 107.762 109.131 107.795 109.099C107.828 109.066 107.872 109.047 107.919 109.047C107.965 109.047 108.01 109.066 108.043 109.099C108.076 109.131 108.094 109.176 108.094 109.222V112.302C108.101 112.508 108.06 112.713 107.974 112.901C107.887 113.088 107.758 113.252 107.596 113.381C107.522 113.404 107.444 113.414 107.366 113.408Z" fill="white"/>
<path d="M105.539 110.753V110.458C105.581 109.69 105.804 108.943 106.188 108.277C106.573 107.611 107.108 107.044 107.751 106.622C107.982 106.427 108.267 106.309 108.568 106.282C108.869 106.255 109.171 106.322 109.432 106.474C109.693 106.625 109.901 106.853 110.028 107.128C110.155 107.402 110.194 107.708 110.139 108.005V108.097L105.539 110.753ZM108.784 106.659C108.479 106.669 108.183 106.761 107.927 106.927C107.378 107.286 106.914 107.76 106.565 108.315C106.217 108.87 105.992 109.494 105.907 110.144L109.789 107.904C109.804 107.686 109.762 107.469 109.669 107.272C109.575 107.075 109.432 106.905 109.254 106.779C109.116 106.701 108.961 106.66 108.802 106.659H108.784Z" fill="white"/>
<path d="M113.567 109.905C113.523 109.898 113.483 109.876 113.454 109.842C113.425 109.808 113.41 109.765 113.41 109.72V103.838C113.41 103.791 113.429 103.747 113.461 103.714C113.494 103.681 113.539 103.663 113.585 103.663C113.632 103.663 113.676 103.681 113.709 103.714C113.742 103.747 113.761 103.791 113.761 103.838V109.72C113.761 109.745 113.755 109.77 113.746 109.793C113.736 109.816 113.721 109.837 113.703 109.854C113.685 109.871 113.664 109.885 113.64 109.893C113.617 109.902 113.592 109.906 113.567 109.905Z" fill="white"/>
<path d="M113.062 105.184H112.997C112.976 105.175 112.957 105.162 112.941 105.145C112.924 105.129 112.912 105.109 112.903 105.088C112.895 105.066 112.89 105.043 112.891 105.02C112.891 104.997 112.896 104.975 112.905 104.953L113.523 103.533L114.205 104.326C114.234 104.361 114.249 104.405 114.245 104.45C114.242 104.495 114.221 104.537 114.187 104.566C114.17 104.581 114.15 104.592 114.129 104.599C114.107 104.606 114.085 104.608 114.063 104.607C114.018 104.603 113.976 104.582 113.947 104.548L113.624 104.179L113.218 105.101C113.203 105.128 113.18 105.15 113.152 105.165C113.124 105.18 113.093 105.186 113.062 105.184Z" fill="white"/>
<path d="M115.163 108.991C115.118 108.989 115.076 108.969 115.045 108.937C115.014 108.904 114.997 108.861 114.997 108.816V102.933C114.991 102.908 114.991 102.881 114.996 102.855C115.002 102.83 115.014 102.805 115.03 102.785C115.047 102.764 115.067 102.747 115.091 102.736C115.115 102.724 115.141 102.718 115.167 102.718C115.194 102.718 115.22 102.724 115.244 102.736C115.267 102.747 115.288 102.764 115.305 102.785C115.321 102.805 115.333 102.83 115.338 102.855C115.344 102.881 115.344 102.908 115.338 102.933V108.798C115.341 108.822 115.338 108.847 115.33 108.87C115.323 108.894 115.31 108.915 115.294 108.933C115.277 108.952 115.257 108.966 115.234 108.976C115.212 108.986 115.187 108.991 115.163 108.991Z" fill="white"/>
<path d="M114.666 104.271H114.592C114.571 104.262 114.551 104.249 114.536 104.232C114.52 104.215 114.507 104.196 114.5 104.174C114.492 104.152 114.489 104.129 114.49 104.106C114.492 104.083 114.498 104.061 114.509 104.04L115.117 102.62L115.809 103.413C115.839 103.446 115.856 103.489 115.856 103.533C115.856 103.578 115.839 103.621 115.809 103.653C115.775 103.684 115.731 103.701 115.684 103.701C115.638 103.701 115.594 103.684 115.56 103.653L115.256 103.266L114.859 104.188C114.842 104.222 114.813 104.249 114.777 104.264C114.742 104.279 114.703 104.282 114.666 104.271Z" fill="white"/>
<path d="M96.4937 123.256L77.7675 112.44V69.1978L96.4937 80.0039V123.256Z" fill="#E0E0E0"/>
<path d="M86.4632 80.3537L89.008 81.8197V75.679L86.4632 74.213V80.3537Z" fill="#F5F5F5"/>
<path d="M89.008 75.6794L115.221 60.5491L112.676 59.0831L86.4632 74.2134L89.008 75.6794Z" fill="white"/>
<path d="M89.0057 101.634L55.2967 82.1706L21.5878 101.634L55.2967 121.089L89.0057 101.634Z" fill="#F5F5F5"/>
<path d="M55.2979 147.034L89.0069 127.58V101.634L55.2979 121.089V147.034Z" fill="#EBEBEB"/>
<path d="M59.6255 138.432C59.5082 138.435 59.3928 138.403 59.2935 138.34C59.1481 138.237 59.0323 138.098 58.9578 137.936C58.8834 137.774 58.8529 137.595 58.8694 137.418V134.652V134.449H59.0077L61.1652 133.186V136.256C61.1666 136.658 61.0709 137.053 60.8863 137.41C60.7016 137.766 60.4336 138.073 60.1049 138.303C59.9589 138.387 59.7937 138.431 59.6255 138.432ZM59.2198 134.864V137.381C59.2044 137.5 59.2192 137.62 59.2627 137.731C59.3062 137.842 59.3771 137.941 59.4687 138.017C59.5434 138.051 59.6257 138.063 59.7069 138.053C59.7881 138.044 59.8651 138.012 59.9297 137.962C60.2058 137.769 60.433 137.515 60.5931 137.219C60.7532 136.922 60.8418 136.593 60.8517 136.256V136.035H60.0496L59.8928 134.956L59.2198 134.864ZM60.3262 135.712H60.861V133.813L59.5701 134.569L60.2063 134.68L60.3262 135.712Z" fill="white"/>
<path d="M60.0184 140.626C59.9719 140.626 59.9274 140.607 59.8945 140.574C59.8617 140.541 59.8432 140.497 59.8432 140.45V138.136C59.8432 138.114 59.8477 138.091 59.8567 138.07C59.8656 138.05 59.8786 138.031 59.895 138.015C59.9114 138 59.9308 137.988 59.952 137.98C59.9732 137.972 59.9958 137.969 60.0184 137.97C60.0624 137.97 60.1046 137.988 60.1357 138.019C60.1669 138.05 60.1843 138.092 60.1843 138.136V140.45C60.1844 140.495 60.1672 140.539 60.1363 140.571C60.1055 140.604 60.0632 140.623 60.0184 140.626Z" fill="white"/>
<path d="M59.0136 141.207C58.9829 141.207 58.9529 141.198 58.9268 141.182C58.9008 141.165 58.8798 141.142 58.8661 141.115C58.853 141.096 58.844 141.075 58.8397 141.053C58.8354 141.031 58.8358 141.009 58.8411 140.987C58.8463 140.965 58.8562 140.944 58.8701 140.927C58.884 140.909 58.9015 140.894 58.9214 140.884L60.9314 139.722C60.951 139.709 60.9731 139.701 60.9963 139.697C61.0195 139.693 61.0431 139.695 61.0658 139.701C61.0884 139.707 61.1096 139.718 61.1277 139.733C61.1459 139.747 61.1607 139.766 61.1711 139.787C61.1825 139.806 61.1898 139.828 61.1927 139.85C61.1956 139.872 61.194 139.894 61.188 139.916C61.182 139.937 61.1716 139.958 61.1577 139.975C61.1437 139.992 61.1263 140.007 61.1066 140.017L59.0966 141.179L59.0136 141.207Z" fill="white"/>
<path d="M66.1693 137.224C66.102 137.224 66.0357 137.208 65.9757 137.178C65.9084 137.133 65.8542 137.07 65.8186 136.998C65.783 136.925 65.7672 136.844 65.7729 136.763V136.283C65.7729 136.262 65.7771 136.24 65.7855 136.22C65.7938 136.2 65.8061 136.181 65.8215 136.166C65.8369 136.151 65.8552 136.138 65.8753 136.13C65.8954 136.122 65.917 136.117 65.9388 136.117C65.9614 136.116 65.9839 136.12 66.0052 136.127C66.0264 136.135 66.0458 136.147 66.0622 136.163C66.0786 136.178 66.0916 136.197 66.1005 136.218C66.1095 136.238 66.114 136.261 66.114 136.283V136.763C66.114 136.827 66.114 136.874 66.114 136.874C66.114 136.874 66.1693 136.874 66.2246 136.874C66.3303 136.773 66.4137 136.651 66.4693 136.516C66.5249 136.381 66.5515 136.236 66.5473 136.09V133.019C66.5473 132.997 66.5519 132.975 66.5608 132.954C66.5697 132.933 66.5828 132.914 66.5992 132.899C66.6156 132.883 66.635 132.871 66.6562 132.863C66.6774 132.856 66.7 132.852 66.7225 132.854C66.7443 132.854 66.7659 132.858 66.786 132.866C66.8062 132.875 66.8245 132.887 66.8399 132.902C66.8553 132.918 66.8675 132.936 66.8759 132.956C66.8842 132.976 66.8885 132.998 66.8885 133.019V136.09C66.8975 136.295 66.858 136.5 66.7731 136.688C66.6882 136.875 66.5603 137.04 66.3998 137.169C66.3282 137.204 66.2494 137.223 66.1693 137.224Z" fill="white"/>
<path d="M64.3434 134.541V134.237C64.3871 133.47 64.61 132.725 64.9944 132.06C65.3787 131.396 65.9137 130.831 66.5562 130.41C66.7852 130.215 67.0693 130.095 67.3693 130.067C67.6693 130.04 67.9705 130.106 68.2314 130.256C68.4923 130.407 68.7 130.635 68.826 130.908C68.9521 131.182 68.9901 131.488 68.935 131.784V131.849L64.3434 134.541ZM67.5889 130.438C67.2834 130.451 66.9871 130.547 66.7314 130.715C66.1801 131.072 65.7131 131.545 65.3628 132.1C65.0126 132.656 64.7874 133.281 64.703 133.933L68.5939 131.692C68.6076 131.473 68.5658 131.255 68.4723 131.056C68.3788 130.858 68.2366 130.687 68.0591 130.558C67.9148 130.48 67.7532 130.438 67.5889 130.438Z" fill="white"/>
<path d="M72.3752 133.693C72.3526 133.694 72.3301 133.69 72.3089 133.683C72.2876 133.675 72.2682 133.663 72.2518 133.647C72.2354 133.632 72.2224 133.613 72.2135 133.592C72.2046 133.572 72.2 133.549 72.2 133.527V127.644C72.1987 127.621 72.2023 127.597 72.2106 127.576C72.219 127.554 72.2318 127.534 72.2484 127.517C72.2649 127.501 72.2848 127.488 72.3066 127.48C72.3285 127.471 72.3518 127.468 72.3752 127.469C72.4217 127.469 72.4662 127.487 72.4991 127.52C72.5319 127.553 72.5504 127.598 72.5504 127.644V133.527C72.548 133.571 72.5285 133.614 72.4959 133.645C72.4633 133.675 72.4201 133.693 72.3752 133.693Z" fill="white"/>
<path d="M71.8674 128.972C71.8573 128.977 71.8463 128.979 71.8351 128.979C71.8239 128.979 71.8129 128.977 71.8028 128.972C71.7819 128.964 71.7629 128.952 71.7469 128.936C71.7308 128.92 71.7181 128.902 71.7095 128.881C71.7009 128.86 71.6965 128.838 71.6967 128.816C71.6969 128.793 71.7017 128.771 71.7106 128.751L72.3284 127.331L73.0107 128.124C73.04 128.158 73.0546 128.203 73.0511 128.247C73.0476 128.292 73.0265 128.334 72.9922 128.364C72.958 128.393 72.9135 128.407 72.8686 128.404C72.8236 128.401 72.7819 128.379 72.7525 128.345L72.4206 127.967L72.0241 128.889C72.0085 128.916 71.9855 128.939 71.9578 128.953C71.93 128.968 71.8987 128.974 71.8674 128.972Z" fill="white"/>
<path d="M73.9701 132.771C73.9252 132.771 73.882 132.754 73.8494 132.723C73.8168 132.692 73.7973 132.65 73.7949 132.605V126.722C73.7949 126.676 73.8134 126.631 73.8462 126.598C73.8791 126.565 73.9237 126.547 73.9701 126.547C73.9935 126.546 74.0169 126.549 74.0387 126.558C74.0606 126.566 74.0804 126.579 74.097 126.595C74.1135 126.612 74.1264 126.632 74.1347 126.654C74.143 126.675 74.1466 126.699 74.1453 126.722V132.605C74.1453 132.627 74.1408 132.65 74.1319 132.67C74.1229 132.691 74.1099 132.71 74.0935 132.725C74.0771 132.741 74.0577 132.753 74.0365 132.761C74.0153 132.769 73.9927 132.772 73.9701 132.771Z" fill="white"/>
<path d="M73.4607 128.059H73.3962C73.3749 128.05 73.3557 128.037 73.3396 128.02C73.3235 128.004 73.3108 127.984 73.3022 127.963C73.2936 127.941 73.2894 127.918 73.2897 127.895C73.29 127.872 73.2948 127.85 73.304 127.828L73.9217 126.408L74.604 127.201C74.6185 127.218 74.6296 127.238 74.6365 127.259C74.6435 127.28 74.6462 127.303 74.6444 127.325C74.6427 127.347 74.6366 127.369 74.6265 127.389C74.6164 127.409 74.6025 127.427 74.5856 127.441C74.5686 127.456 74.549 127.467 74.5278 127.474C74.5065 127.481 74.4842 127.483 74.4619 127.482C74.4396 127.48 74.4179 127.474 74.398 127.464C74.3781 127.454 74.3604 127.44 74.3458 127.423L74.0231 127.045L73.6267 127.967C73.6108 127.996 73.5867 128.021 73.5573 128.037C73.5278 128.054 73.4943 128.061 73.4607 128.059Z" fill="white"/>
<path d="M55.2967 147.034L21.5878 127.58V101.634L55.2967 121.089V147.034Z" fill="#E0E0E0"/>
<path d="M37.1714 116.764L39.7162 118.23V112.099L37.1714 110.624V116.764Z" fill="#F5F5F5"/>
<path d="M39.7162 112.099L73.4252 92.635L70.8804 91.1689L37.1714 110.624L39.7162 112.099Z" fill="white"/>
<path d="M26.9248 117.686L34.974 122.296C35.4385 122.6 35.8249 123.008 36.1021 123.489C36.3792 123.969 36.5392 124.508 36.5691 125.062V130.023C36.5691 131.037 35.85 131.452 34.974 130.945L26.9248 126.335C26.4604 126.031 26.0739 125.623 25.7968 125.142C25.5197 124.662 25.3597 124.123 25.3297 123.569V118.608C25.3297 117.594 26.0489 117.179 26.9248 117.686Z" fill="#F5F5F5"/>
<path d="M26.3111 118.931L26.6153 119.106V124.62L26.3111 124.435V118.931Z" fill="#E0E0E0"/>
<path d="M27.5531 119.651L28.0787 119.955V125.468L27.5531 125.155V119.651Z" fill="#E0E0E0"/>
<path d="M28.7994 120.36L29.1037 120.545V126.049L28.7994 125.874V120.36Z" fill="#E0E0E0"/>
<path d="M29.7305 120.896L30.3482 121.255V126.769L29.7305 126.409V120.896Z" fill="#E0E0E0"/>
<path d="M31.2784 121.799L31.5918 121.974V127.488L31.2784 127.313V121.799Z" fill="#E0E0E0"/>
<path d="M32.1822 122.306L32.8368 122.693L32.8276 128.207L32.1822 127.819V122.306Z" fill="#E0E0E0"/>
<path d="M33.7709 123.237L34.0752 123.412V128.926L33.7709 128.741V123.237Z" fill="#E0E0E0"/>
<path d="M34.4789 123.643L34.6356 123.726V129.24L34.4789 129.147V123.643Z" fill="#E0E0E0"/>
<path d="M33.2043 122.933L33.3518 123.025V128.539L33.2043 128.446V122.933Z" fill="#E0E0E0"/>
<path d="M30.6992 121.467L30.8559 121.559V127.063L30.6992 126.98V121.467Z" fill="#E0E0E0"/>
<path d="M29.3241 120.683L29.4809 120.766V126.28L29.3241 126.187V120.683Z" fill="#E0E0E0"/>
<path d="M28.3397 120.139L28.4964 120.222V125.736L28.3397 125.643V120.139Z" fill="#E0E0E0"/>
<path d="M27.0012 119.327L27.158 119.41V124.924L27.0012 124.832V119.327Z" fill="#E0E0E0"/>
<path d="M35.013 123.956L35.3172 124.131V129.636L35.013 129.461V123.956Z" fill="#E0E0E0"/>
<path d="M81.5089 49.7339L55.296 34.5944L29.0738 49.7339L55.296 64.8734L81.5089 49.7339Z" fill="#F5F5F5"/>
<path d="M55.2979 116.764L81.5109 101.624V49.7332L55.2979 64.8727V116.764Z" fill="#EBEBEB"/>
<path d="M59.6245 108.162C59.5079 108.16 59.3937 108.128 59.2926 108.07C59.1485 107.965 59.0338 107.826 58.9595 107.664C58.8852 107.503 58.8538 107.325 58.8685 107.148V104.382V104.188H59.0068L61.1643 102.916V106.032C61.1598 106.426 61.0613 106.813 60.8768 107.161C60.6924 107.509 60.4274 107.808 60.104 108.033C59.959 108.119 59.7932 108.163 59.6245 108.162ZM59.2189 104.594V107.138C59.2035 107.257 59.2183 107.377 59.2618 107.488C59.3053 107.6 59.3762 107.698 59.4678 107.775C59.543 107.805 59.6248 107.816 59.7055 107.806C59.7861 107.797 59.8629 107.767 59.9288 107.719C60.2042 107.529 60.4317 107.278 60.5933 106.985C60.7549 106.693 60.8462 106.366 60.8601 106.032V105.801H60.0579L59.9012 104.723L59.2189 104.594ZM60.3253 105.442H60.8601V103.542L59.5692 104.299L60.2054 104.409L60.3253 105.442Z" fill="white"/>
<path d="M60.0177 110.347C59.9951 110.349 59.9726 110.345 59.9514 110.338C59.9301 110.33 59.9107 110.318 59.8943 110.302C59.8779 110.287 59.8649 110.268 59.856 110.247C59.8471 110.226 59.8425 110.204 59.8425 110.181V107.876C59.8365 107.851 59.8364 107.824 59.8421 107.798C59.8479 107.772 59.8594 107.748 59.8758 107.728C59.8922 107.707 59.9131 107.69 59.9369 107.679C59.9606 107.667 59.9867 107.661 60.0131 107.661C60.0395 107.661 60.0655 107.667 60.0893 107.679C60.1131 107.69 60.1339 107.707 60.1504 107.728C60.1668 107.748 60.1783 107.772 60.184 107.798C60.1898 107.824 60.1897 107.851 60.1837 107.876V110.191C60.1813 110.233 60.1628 110.273 60.1319 110.302C60.101 110.331 60.0602 110.347 60.0177 110.347Z" fill="white"/>
<path d="M59.0129 110.928C58.983 110.93 58.9531 110.923 58.927 110.908C58.9008 110.893 58.8795 110.872 58.8654 110.845C58.8522 110.826 58.843 110.804 58.8387 110.782C58.8343 110.759 58.8347 110.736 58.8399 110.713C58.8451 110.69 58.855 110.669 58.8689 110.651C58.8828 110.632 58.9005 110.617 58.9207 110.605L60.9307 109.453C60.9497 109.44 60.9713 109.43 60.9941 109.426C61.0168 109.422 61.0403 109.422 61.0628 109.427C61.0854 109.433 61.1067 109.442 61.1252 109.456C61.1437 109.47 61.1591 109.488 61.1704 109.508C61.182 109.528 61.1895 109.55 61.1925 109.573C61.1955 109.596 61.194 109.619 61.188 109.641C61.182 109.664 61.1716 109.685 61.1575 109.703C61.1435 109.721 61.1259 109.736 61.1059 109.748L59.0959 110.91L59.0129 110.928Z" fill="white"/>
<path d="M66.1676 106.954C66.1039 106.969 66.0376 106.969 65.974 106.954C65.9073 106.908 65.8536 106.846 65.8181 106.773C65.7825 106.7 65.7664 106.62 65.7711 106.539V106.032C65.7651 106.006 65.765 105.979 65.7707 105.954C65.7765 105.928 65.788 105.904 65.8044 105.883C65.8208 105.862 65.8417 105.846 65.8655 105.834C65.8892 105.823 65.9153 105.817 65.9417 105.817C65.9681 105.817 65.9941 105.823 66.0179 105.834C66.0417 105.846 66.0625 105.862 66.0789 105.883C66.0953 105.904 66.1069 105.928 66.1126 105.954C66.1184 105.979 66.1183 106.006 66.1122 106.032V106.511C66.1122 106.576 66.1122 106.613 66.1122 106.622C66.1122 106.631 66.1676 106.622 66.2229 106.622C66.3286 106.521 66.4119 106.399 66.4675 106.264C66.5231 106.129 66.5497 105.984 66.5456 105.838V102.768C66.5396 102.742 66.5395 102.715 66.5452 102.69C66.551 102.664 66.5625 102.64 66.5789 102.619C66.5953 102.598 66.6162 102.582 66.6399 102.57C66.6637 102.559 66.6898 102.553 66.7162 102.553C66.7426 102.553 66.7686 102.559 66.7924 102.57C66.8162 102.582 66.837 102.598 66.8534 102.619C66.8698 102.64 66.8814 102.664 66.8871 102.69C66.8929 102.715 66.8928 102.742 66.8867 102.768V105.838C66.8943 106.044 66.8541 106.248 66.7693 106.435C66.6846 106.622 66.5575 106.787 66.3981 106.917C66.325 106.946 66.2462 106.959 66.1676 106.954Z" fill="white"/>
<path d="M64.3434 104.271V103.967C64.3856 103.2 64.608 102.454 64.9925 101.789C65.3769 101.125 65.9127 100.56 66.5562 100.141C66.7852 99.945 67.0693 99.825 67.3693 99.7974C67.6693 99.7698 67.9705 99.8359 68.2314 99.9865C68.4923 100.137 68.7 100.365 68.826 100.639C68.9521 100.912 68.9901 101.218 68.935 101.515V101.616L64.3434 104.271ZM67.5889 100.168C67.2848 100.182 66.9895 100.274 66.7314 100.436C66.1828 100.798 65.7179 101.273 65.3681 101.83C65.0182 102.386 64.7914 103.011 64.703 103.663L68.5939 101.422C68.6077 101.205 68.5659 100.987 68.4723 100.791C68.3788 100.594 68.2365 100.424 68.0591 100.297C67.9168 100.213 67.7544 100.168 67.5889 100.168Z" fill="white"/>
<path d="M72.3752 103.413C72.3518 103.415 72.3285 103.411 72.3066 103.403C72.2848 103.394 72.2649 103.381 72.2484 103.365C72.2318 103.348 72.219 103.328 72.2106 103.307C72.2023 103.285 72.1987 103.261 72.2 103.238V97.3555C72.2 97.3091 72.2185 97.2645 72.2513 97.2317C72.2842 97.1988 72.3287 97.1804 72.3752 97.1804C72.4209 97.1826 72.4642 97.2018 72.4966 97.2342C72.529 97.2665 72.5482 97.3098 72.5504 97.3555V103.266C72.5438 103.307 72.5224 103.345 72.4902 103.372C72.4581 103.399 72.4172 103.414 72.3752 103.413Z" fill="white"/>
<path d="M71.8674 98.7016H71.8028C71.7819 98.6935 71.7629 98.6813 71.7469 98.6656C71.7308 98.65 71.7181 98.6313 71.7095 98.6106C71.7009 98.5899 71.6965 98.5677 71.6967 98.5453C71.6969 98.5229 71.7017 98.5008 71.7106 98.4803L72.3284 97.0511L73.0107 97.8441C73.0271 97.8604 73.0402 97.8798 73.0491 97.9011C73.058 97.9225 73.0626 97.9454 73.0626 97.9686C73.0626 97.9917 73.058 98.0146 73.0491 98.036C73.0402 98.0573 73.0271 98.0767 73.0107 98.093C72.9782 98.1235 72.9353 98.1405 72.8908 98.1405C72.8463 98.1405 72.8034 98.1235 72.771 98.093L72.439 97.715L72.0426 98.637C72.0232 98.6641 71.9961 98.6847 71.9649 98.6963C71.9337 98.7078 71.8997 98.7096 71.8674 98.7016Z" fill="white"/>
<path d="M73.9701 102.5C73.9463 102.504 73.9221 102.503 73.8988 102.497C73.8754 102.492 73.8536 102.481 73.8346 102.466C73.8155 102.452 73.7997 102.433 73.7881 102.412C73.7766 102.391 73.7694 102.368 73.7672 102.344V96.4428C73.7696 96.398 73.7891 96.3558 73.8217 96.3249C73.8543 96.294 73.8975 96.2768 73.9424 96.2769C73.965 96.2756 73.9875 96.279 74.0088 96.2868C74.03 96.2945 74.0494 96.3066 74.0658 96.3221C74.0822 96.3376 74.0952 96.3564 74.1041 96.3771C74.1131 96.3979 74.1176 96.4202 74.1176 96.4428V102.344C74.1156 102.383 74.0997 102.421 74.0727 102.449C74.0457 102.478 74.0093 102.496 73.9701 102.5Z" fill="white"/>
<path d="M73.4624 97.7891H73.3978C73.377 97.781 73.3579 97.7688 73.3419 97.7531C73.3258 97.7375 73.3131 97.7188 73.3045 97.6981C73.2959 97.6774 73.2916 97.6552 73.2918 97.6328C73.2919 97.6104 73.2967 97.5883 73.3056 97.5678L73.9234 96.1479L74.6057 96.9316C74.6221 96.9479 74.6352 96.9673 74.6441 96.9886C74.653 97.01 74.6576 97.0329 74.6576 97.0561C74.6576 97.0792 74.653 97.1021 74.6441 97.1235C74.6352 97.1449 74.6221 97.1643 74.6057 97.1806C74.5902 97.1967 74.5716 97.2096 74.551 97.2184C74.5304 97.2272 74.5082 97.2317 74.4858 97.2317C74.4634 97.2317 74.4413 97.2272 74.4207 97.2184C74.4001 97.2096 74.3815 97.1967 74.366 97.1806L74.0433 96.8025L73.6468 97.7245C73.6259 97.7524 73.5973 97.7734 73.5644 97.7849C73.5316 97.7964 73.4961 97.7978 73.4624 97.7891Z" fill="white"/>
<path d="M55.296 116.764L29.083 101.634L29.0738 49.7332L55.296 64.8727V116.764Z" fill="#E0E0E0"/>
<path d="M41.5229 63.0569L44.0585 64.5229V58.3823L41.5229 56.9163V63.0569Z" fill="#F5F5F5"/>
<path d="M44.0585 58.3822L70.2807 43.2427L67.7359 41.7767L41.5229 56.9162L44.0585 58.3822Z" fill="white"/>
<path d="M34.4119 91.7409L42.4519 96.351C42.9169 96.6538 43.3037 97.0622 43.5809 97.5428C43.8581 98.0235 44.0178 98.5629 44.047 99.117V104.077C44.047 105.101 43.337 105.516 42.4519 104.999L34.4119 100.389C33.948 100.085 33.5619 99.6769 33.2848 99.1964C33.0078 98.7159 32.8475 98.1771 32.8168 97.6233V92.6629C32.8168 91.6395 33.5268 91.2245 34.4119 91.7409Z" fill="#F5F5F5"/>
<path d="M33.7877 92.9766L34.1011 93.1517V98.6654L33.7877 98.4902V92.9766Z" fill="#E0E0E0"/>
<path d="M35.0348 93.6956L35.5603 94.0091V99.5135L35.0348 99.2093V93.6956Z" fill="#E0E0E0"/>
<path d="M36.2779 94.4149L36.5822 94.59V100.104L36.2779 99.9285V94.4149Z" fill="#E0E0E0"/>
<path d="M37.2205 94.9403L37.829 95.3091V100.814L37.2205 100.454V94.9403Z" fill="#E0E0E0"/>
<path d="M38.7694 95.8444L39.0737 96.0288V101.533L38.7694 101.358V95.8444Z" fill="#E0E0E0"/>
<path d="M39.6627 96.351L40.3174 96.7383V102.252L39.6627 101.865V96.351Z" fill="#E0E0E0"/>
<path d="M41.2588 97.282L41.5631 97.4572V102.971L41.2588 102.796V97.282Z" fill="#E0E0E0"/>
<path d="M41.9668 97.6881L42.1143 97.7803V103.285L41.9668 103.202V97.6881Z" fill="#E0E0E0"/>
<path d="M40.6849 96.9872L40.8416 97.0702V102.584L40.6849 102.492V96.9872Z" fill="#E0E0E0"/>
<path d="M38.184 95.5124L38.3315 95.6046V101.118L38.184 101.026V95.5124Z" fill="#E0E0E0"/>
<path d="M36.8131 94.7285L36.9606 94.8207V100.325L36.8131 100.242V94.7285Z" fill="#E0E0E0"/>
<path d="M35.8265 94.1841L35.9833 94.2763L35.974 99.7808L35.8265 99.6978V94.1841Z" fill="#E0E0E0"/>
<path d="M34.4902 93.3728L34.6377 93.465V98.9694L34.4902 98.8865V93.3728Z" fill="#E0E0E0"/>
<path d="M42.5019 98.0015L42.8062 98.1767V103.69L42.5019 103.515V98.0015Z" fill="#E0E0E0"/>
<path d="M29.3252 192.591L129.954 250.678C131.191 251.306 132.559 251.633 133.947 251.633C135.334 251.633 136.702 251.306 137.939 250.678L358.421 123.44C360.625 122.167 360.625 120.102 358.421 118.83L257.792 60.7425C256.555 60.1148 255.187 59.7877 253.8 59.7877C252.412 59.7877 251.045 60.1148 249.807 60.7425L29.3252 187.981C27.1216 189.253 27.1216 191.319 29.3252 192.591Z" fill="#455A64"/>
<path d="M83.7142 219.579C85.429 220.447 87.3242 220.9 89.2463 220.9C91.1685 220.9 93.0636 220.447 94.7784 219.579C97.8395 217.808 97.8395 214.969 94.7784 213.18C93.0636 212.311 91.1685 211.859 89.2463 211.859C87.3242 211.859 85.429 212.311 83.7142 213.18C80.6531 214.941 80.6531 217.808 83.7142 219.579Z" fill="#263238"/>
<path d="M131.799 250.688L31.1695 192.601C29.1964 191.467 28.9935 189.696 30.5518 188.424C29.5671 189.202 28.7577 190.179 28.1762 191.291C27.5947 192.403 27.2543 193.625 27.1772 194.878V198.631C27.2429 200.027 27.639 201.388 28.3331 202.601C29.0271 203.814 29.9992 204.846 31.1695 205.61L131.799 263.697C133.029 264.34 134.403 264.657 135.791 264.619V251.637C134.401 251.667 133.026 251.34 131.799 250.688Z" fill="#37474F"/>
<path d="M358.42 136.376C359.581 135.618 360.548 134.597 361.242 133.395C361.935 132.194 362.336 130.846 362.412 129.461V125.699C362.335 124.446 361.994 123.224 361.413 122.112C360.831 121 360.022 120.023 359.037 119.245C360.596 120.517 360.393 122.288 358.42 123.431L137.938 250.669C136.707 251.311 135.333 251.628 133.945 251.591V264.619C135.333 264.656 136.707 264.339 137.938 263.697L358.42 136.376Z" fill="#263238"/>
<path d="M146.531 238.646L50.2173 183.012C48.8896 182.246 48.8896 181.011 50.2173 180.246L236.391 72.7291C237.135 72.356 237.956 72.1617 238.788 72.1617C239.621 72.1617 240.442 72.356 241.186 72.7291L337.536 128.354C338.855 129.12 338.855 130.364 337.536 131.12L151.289 238.646C150.551 239.018 149.736 239.211 148.91 239.211C148.084 239.211 147.269 239.018 146.531 238.646Z" fill="white"/>
<path d="M107.734 207.583L118.964 201.102L115.221 198.935L103.991 205.426L107.734 207.583Z" fill="#EE0033"/>
<path d="M242.56 129.737L253.799 123.256L250.056 121.089L238.817 127.58L242.56 129.737Z" fill="#EE0033"/>
<path d="M265.03 116.764L276.269 110.283L272.526 108.116L261.286 114.607L265.03 116.764Z" fill="#EE0033"/>
<path d="M301.099 94.0457C301.534 94.2683 302.016 94.3843 302.505 94.3843C302.994 94.3843 303.476 94.2683 303.911 94.0457C304.08 93.9879 304.227 93.8786 304.331 93.7331C304.435 93.5876 304.491 93.4132 304.491 93.2344C304.491 93.0555 304.435 92.8811 304.331 92.7357C304.227 92.5902 304.08 92.4808 303.911 92.423C303.474 92.2047 302.993 92.0911 302.505 92.0911C302.017 92.0911 301.535 92.2047 301.099 92.423C300.93 92.4808 300.783 92.5902 300.679 92.7357C300.575 92.8811 300.519 93.0555 300.519 93.2344C300.519 93.4132 300.575 93.5876 300.679 93.7331C300.783 93.8786 300.93 93.9879 301.099 94.0457Z" fill="#263238"/>
<path d="M305.588 106.77C306.457 107.215 307.419 107.447 308.395 107.447C309.372 107.447 310.334 107.215 311.203 106.77C312.761 105.848 312.761 104.428 311.203 103.534C310.333 103.093 309.371 102.863 308.395 102.863C307.42 102.863 306.458 103.093 305.588 103.534C304.039 104.428 304.039 105.875 305.588 106.77Z" fill="#263238"/>
<path d="M301.624 101.127C302.666 100.528 302.611 99.5322 301.504 98.896L283.064 88.2283C282.47 87.9123 281.809 87.7409 281.137 87.7281C280.464 87.7153 279.797 87.8614 279.191 88.1545C278.159 88.7538 278.214 89.7496 279.321 90.3858L297.761 101.063C298.354 101.377 299.013 101.547 299.685 101.558C300.356 101.569 301.021 101.422 301.624 101.127Z" fill="#263238"/>
<path d="M270.154 57.8659L270.781 57.5064C270.349 59.0768 270.138 60.6998 270.154 62.3285V64.5875C270.154 72.6551 279.854 93.2899 283.413 100.601C283.782 101.358 278.886 106.567 278.886 106.567L284.704 103.211C284.704 103.211 299.244 91.2245 299.244 81.3774V79.1277C299.244 69.2436 292.735 57.4603 284.704 52.8225C280.656 50.4898 276.996 50.416 274.359 52.1771L268.827 55.3488L270.154 57.8659ZM277.429 65.4265C277.429 60.8164 280.684 58.9078 284.704 61.2221C284.381 64.2002 289.812 73.4757 291.979 73.8168C291.979 78.4269 288.715 80.3355 284.704 78.0212C282.596 76.6423 280.842 74.7874 279.584 72.606C278.325 70.4247 277.596 67.978 277.457 65.4634L277.429 65.4265Z" fill="#EE0033"/>
<path d="M264.162 68.23C264.328 78.1141 279.338 106.614 279.338 106.614C279.338 106.614 293.685 94.4338 293.528 84.5405V82.2908C293.362 72.4068 286.659 60.7432 278.554 56.2346C270.45 51.7259 264.005 56.0963 264.162 65.9803V68.23ZM271.455 68.9492C271.372 64.3391 274.599 62.3752 278.656 64.6342C280.794 65.9808 282.585 67.8118 283.884 69.979C285.183 72.1462 285.953 74.5888 286.133 77.1091C286.207 81.7191 282.98 83.6738 278.932 81.4241C276.786 80.0757 274.989 78.2381 273.69 76.0618C272.39 73.8855 271.624 71.4323 271.455 68.9031V68.9492Z" fill="#EE0033"/>
<path opacity="0.1" d="M264.162 68.23C264.328 78.1141 279.338 106.614 279.338 106.614C279.338 106.614 293.685 94.4338 293.528 84.5405V82.2908C293.362 72.4068 286.659 60.7432 278.554 56.2346C270.45 51.7259 264.005 56.0963 264.162 65.9803V68.23ZM271.455 68.9492C271.372 64.3391 274.599 62.3752 278.656 64.6342C280.794 65.9808 282.585 67.8118 283.884 69.979C285.183 72.1462 285.953 74.5888 286.133 77.1091C286.207 81.7191 282.98 83.6738 278.932 81.4241C276.786 80.0757 274.989 78.2381 273.69 76.0618C272.39 73.8855 271.624 71.4323 271.455 68.9031V68.9492Z" fill="black"/>
<path d="M123.555 200.004C132.876 205.371 154.728 201.47 172.366 191.282L220.809 163.317C238.447 153.175 245.178 140.534 235.838 135.177C226.498 129.82 204.628 133.739 186.971 143.927L138.602 171.846C120.982 182.034 114.242 194.638 123.555 200.004Z" fill="#F0F0F0"/>
<path d="M130.203 194.61L141.442 188.119L137.699 185.962L126.459 192.444L130.203 194.61Z" fill="#EE0033"/>
<path d="M152.673 181.637L163.913 175.146L160.169 172.989L148.93 179.471L152.673 181.637Z" fill="#EE0033"/>
<path d="M148.063 179.019C148.063 184.441 144.264 191.005 139.571 193.771C137.072 195.219 134.823 195.265 133.274 194.177C132.649 193.686 132.136 193.068 131.769 192.364C131.402 191.66 131.189 190.885 131.144 190.093C131.459 189.945 131.767 189.782 132.066 189.604C136.759 186.902 140.558 180.31 140.558 174.852C140.562 174.448 140.537 174.044 140.484 173.644C141.187 173.272 141.96 173.05 142.754 172.993C143.548 172.936 144.344 173.044 145.094 173.312C146.938 174.068 148.063 176.106 148.063 179.019Z" fill="#263238"/>
<path d="M148.827 167.862L148.671 167.77C146.31 166.516 143.138 166.747 139.57 168.794C132.332 172.97 126.459 183.131 126.459 191.494C126.459 195.698 127.944 198.639 130.341 200.004C132.738 201.369 135.974 201.138 139.561 199.082C146.799 194.905 152.663 184.735 152.663 176.373C152.672 172.168 151.215 169.227 148.827 167.862ZM139.607 193.734C137.099 195.182 134.85 195.228 133.301 194.131C131.936 193.209 131.106 191.365 131.106 188.829C131.106 183.417 134.914 176.843 139.607 174.077C141.746 172.841 143.692 172.629 145.139 173.265C146.928 174.031 148.053 176.032 148.053 178.982C148.062 184.403 144.263 191.033 139.57 193.734H139.607Z" fill="#37474F"/>
<path d="M145.563 173.506L145.462 173.45C143.931 172.639 141.857 172.786 139.57 174.114C134.877 176.825 131.069 183.408 131.069 188.866C131.069 191.586 131.991 193.476 133.586 194.399C135.182 195.321 137.275 195.136 139.57 193.79C144.254 191.079 148.062 184.487 148.062 179.038C148.062 176.299 147.112 174.391 145.563 173.506ZM139.57 191.78C137.551 192.942 135.744 192.979 134.499 192.103C133.402 191.337 132.729 189.871 132.729 187.834C132.859 185.463 133.546 183.156 134.735 181.101C135.924 179.046 137.58 177.299 139.57 176.004C140.215 175.554 140.956 175.261 141.734 175.149C142.512 175.037 143.306 175.109 144.051 175.359C145.49 175.967 146.393 177.581 146.393 179.969C146.264 182.335 145.579 184.638 144.393 186.69C143.208 188.742 141.555 190.486 139.57 191.78Z" fill="#EE0033"/>
<path d="M175.15 168.665L186.38 162.174L182.637 160.016L171.397 166.498L175.15 168.665Z" fill="#EE0033"/>
<path d="M197.62 155.692L208.85 149.201L205.107 147.043L193.876 153.525L197.62 155.692Z" fill="#EE0033"/>
<path d="M220.09 142.71L231.33 136.228L227.577 134.071L216.347 140.552L220.09 142.71Z" fill="#EE0033"/>
<path d="M164.179 82.3918C164.917 81.7556 165.654 82.0137 165.839 82.9726C165.906 83.498 165.849 84.0318 165.673 84.5314C165.497 85.0309 165.206 85.4823 164.824 85.8493C164.087 86.4763 163.34 86.2181 163.165 85.2592C163.095 84.7351 163.15 84.2018 163.326 83.7033C163.503 83.2047 163.795 82.7552 164.179 82.3918Z" fill="#EE0033"/>
<path d="M172.828 86.458L165.304 82.1245L163.663 86.0892L171.196 90.4411L172.828 86.458Z" fill="#EE0033"/>
<path d="M171.666 86.7157C172.403 86.0795 173.15 86.3377 173.325 87.2966C173.395 87.8221 173.34 88.3568 173.164 88.8568C172.987 89.3569 172.695 89.808 172.311 90.1733C171.573 90.8003 170.836 90.5421 170.651 89.5832C170.583 89.0592 170.64 88.5265 170.816 88.0284C170.992 87.5302 171.283 87.0805 171.666 86.7157Z" fill="#EE0033"/>
<path d="M229.419 123.071C229.419 123.256 229.419 123.422 229.419 123.606C229.419 123.975 229.419 124.353 229.419 124.731C227.926 124.095 225.98 124.307 223.841 125.542C219.148 128.253 215.34 134.845 215.34 140.294C215.34 142.821 216.17 144.646 217.535 145.596C217.151 145.868 216.754 146.121 216.345 146.352L215.912 146.573L214.612 151.469L207.088 147.274C204.709 145.9 203.243 142.968 203.243 138.782C203.243 130.42 209.107 120.259 216.345 116.073C219.923 114.008 223.159 113.796 225.565 115.151L232.942 119.282L233.098 119.374L229.419 123.071Z" fill="#455A64"/>
<path d="M233.09 119.291L232.933 119.199C230.573 117.945 227.401 118.175 223.833 120.222C216.595 124.399 210.722 134.56 210.722 142.922C210.722 147.127 212.206 150.068 214.604 151.433C217.001 152.797 220.237 152.567 223.824 150.511C231.062 146.334 236.926 136.164 236.926 127.801C236.963 123.597 235.469 120.656 233.09 119.291ZM223.87 145.163C221.362 146.61 219.112 146.657 217.563 145.559C216.199 144.637 215.369 142.793 215.369 140.258C215.369 134.845 219.177 128.271 223.87 125.505C226.009 124.27 227.955 124.058 229.448 124.694C231.237 125.459 232.362 127.46 232.362 130.411C232.353 135.869 228.526 142.461 223.833 145.163H223.87Z" fill="#37474F"/>
<path d="M232.353 130.447C232.353 135.869 228.554 142.434 223.861 145.2C221.362 146.647 219.113 146.693 217.564 145.605C216.939 145.115 216.426 144.497 216.059 143.792C215.692 143.088 215.479 142.314 215.434 141.521C215.749 141.374 216.057 141.21 216.356 141.032C221.049 138.331 224.848 131.738 224.848 126.28C224.852 125.876 224.827 125.472 224.774 125.072C225.477 124.7 226.25 124.478 227.044 124.421C227.838 124.364 228.634 124.473 229.384 124.74C231.2 125.496 232.353 127.497 232.353 130.447Z" fill="#263238"/>
<path d="M229.834 124.943L229.733 124.888C228.202 124.067 226.119 124.224 223.832 125.552C219.139 128.253 215.331 134.846 215.331 140.304C215.331 143.07 216.299 144.914 217.848 145.836C219.397 146.758 221.536 146.574 223.832 145.227C228.525 142.517 232.324 135.924 232.324 130.475C232.352 127.737 231.374 125.828 229.834 124.943ZM223.832 143.245C221.822 144.407 220.006 144.444 218.761 143.559C217.664 142.803 217 141.327 217 139.299C217.129 136.929 217.815 134.623 219.002 132.568C220.189 130.512 221.844 128.766 223.832 127.469C224.478 127.018 225.22 126.724 226 126.611C226.779 126.497 227.575 126.567 228.322 126.815C229.761 127.433 230.664 129.037 230.664 131.425C230.534 133.793 229.847 136.098 228.66 138.151C227.473 140.205 225.819 141.95 223.832 143.245Z" fill="#EE0033"/>
<path d="M216.347 133.204L237.553 120.96C240.015 119.54 232.021 111.186 226.074 110.633C222.803 110.24 219.486 110.554 216.347 111.555C216.347 111.555 220.865 117.355 220.09 120.646C219.316 123.938 216.347 133.204 216.347 133.204Z" fill="#EE0033"/>
<path d="M186.382 98.6558C186.382 98.6558 217.122 114.155 218.449 115.086C219.777 116.017 218.449 126.842 216.347 133.25C214.245 139.658 210.981 149.514 209.69 152.326C208.399 155.139 206.684 156.125 203.568 157.923L181.44 170.721L151.483 174.261L139.598 167.807L142.687 148.353C142.687 148.353 174.524 131.406 178.886 128.889C183.247 126.372 196.146 114.588 186.382 98.6558Z" fill="#EE0033"/>
<path opacity="0.2" d="M186.382 98.6558C186.382 98.6558 217.122 114.155 218.449 115.086C219.777 116.017 218.449 126.842 216.347 133.25C214.245 139.658 210.981 149.514 209.69 152.326C208.399 155.139 206.684 156.125 203.568 157.923L181.44 170.721L151.483 174.261L139.598 167.807L142.687 148.353C142.687 148.353 174.524 131.406 178.886 128.889C183.247 126.372 196.146 114.588 186.382 98.6558Z" fill="black"/>
<path d="M219.039 129.516C221.805 122.075 223.871 115.916 223.52 111.767C223.096 106.834 221.261 102.796 213.12 100.768C204.978 98.7391 193.628 98.7667 193.628 98.7667L190.162 100.768C190.162 100.768 213.544 114.321 216.199 115.806C217.822 116.728 219.556 120.785 216.384 133.204L216.928 133.518C217.186 133.693 218.154 131.904 219.039 129.516Z" fill="#EE0033"/>
<path opacity="0.3" d="M219.039 129.516C221.805 122.075 223.871 115.916 223.52 111.767C223.096 106.834 221.261 102.796 213.12 100.768C204.978 98.7391 193.628 98.7667 193.628 98.7667L190.162 100.768C190.162 100.768 213.544 114.321 216.199 115.806C217.822 116.728 219.556 120.785 216.384 133.204L216.928 133.518C217.186 133.693 218.154 131.904 219.039 129.516Z" fill="white"/>
<path d="M201.327 107.258L205.107 105.092C205.107 105.092 204.886 91.9897 199.382 88.8179C193.877 85.6462 175.188 87.7945 175.188 87.7945L171.444 89.9612L201.327 107.258Z" fill="#EE0033"/>
<path d="M189.063 91.8054C187.274 92.8473 187.219 94.5714 189.063 95.5672C190.072 96.0762 191.187 96.3414 192.318 96.3414C193.448 96.3414 194.563 96.0762 195.572 95.5672C197.37 94.5253 197.37 92.8011 195.572 91.8054C194.563 91.2963 193.448 91.0312 192.318 91.0312C191.187 91.0312 190.072 91.2963 189.063 91.8054Z" fill="#F0F0F0"/>
<path d="M194.826 98.066C193.554 98.8037 193.554 99.9931 194.826 100.721C195.54 101.088 196.33 101.279 197.131 101.279C197.933 101.279 198.723 101.088 199.437 100.721C200.709 99.9931 200.709 98.8037 199.437 98.066C198.722 97.704 197.932 97.5153 197.131 97.5153C196.331 97.5153 195.541 97.704 194.826 98.066Z" fill="#F0F0F0"/>
<path d="M180.332 90.1363C179.069 90.8647 179.069 92.0541 180.332 92.7917C181.047 93.1524 181.837 93.3402 182.637 93.3402C183.438 93.3402 184.228 93.1524 184.942 92.7917C186.215 92.0541 186.215 90.8647 184.942 90.1363C184.229 89.7713 183.439 89.581 182.637 89.581C181.836 89.581 181.046 89.7713 180.332 90.1363Z" fill="#F0F0F0"/>
<path d="M201.871 103.45C201.989 103.294 202.153 103.178 202.341 103.121C202.528 103.064 202.729 103.068 202.914 103.133C203.099 103.198 203.259 103.32 203.37 103.481C203.481 103.643 203.537 103.835 203.531 104.031C203.6 104.557 203.544 105.091 203.368 105.591C203.191 106.091 202.9 106.542 202.517 106.908C201.779 107.544 201.042 107.286 200.857 106.327C200.789 105.802 200.846 105.268 201.022 104.768C201.198 104.268 201.489 103.817 201.871 103.45Z" fill="#EE0033"/>
<path d="M210.519 107.526L202.995 103.183L201.354 107.157L208.887 111.509L210.519 107.526Z" fill="#EE0033"/>
<path d="M209.356 107.775C210.094 107.148 210.841 107.406 211.016 108.365C211.087 108.888 211.033 109.421 210.859 109.919C210.684 110.418 210.393 110.868 210.011 111.232C209.273 111.868 208.526 111.61 208.351 110.651C208.28 110.126 208.334 109.592 208.508 109.092C208.683 108.592 208.974 108.141 209.356 107.775Z" fill="#EE0033"/>
<path d="M209.356 107.775C210.094 107.148 210.841 107.406 211.016 108.365C211.087 108.888 211.033 109.421 210.859 109.919C210.684 110.418 210.393 110.868 210.011 111.232C209.273 111.868 208.526 111.61 208.351 110.651C208.28 110.126 208.334 109.592 208.508 109.092C208.683 108.592 208.974 108.141 209.356 107.775Z" fill="black"/>
<path d="M145.158 171.643C145.158 171.827 145.158 171.993 145.158 172.178C145.158 172.546 145.158 172.924 145.158 173.303C143.664 172.666 141.718 172.878 139.625 174.114C134.932 176.825 131.124 183.417 131.124 188.866C131.124 191.392 131.954 193.218 133.319 194.168C132.936 194.44 132.539 194.693 132.129 194.924L131.696 195.145L130.396 200.041L122.872 195.846C120.494 194.472 119.028 191.54 119.028 187.354C119.028 178.991 124.892 168.831 132.129 164.645C135.707 162.579 138.943 162.367 141.35 163.723L148.726 167.853L148.883 167.946L145.158 171.643Z" fill="#455A64"/>
<path d="M122.715 156.992L117.091 176.456L128.331 182.937L134.149 163.593L122.715 156.992Z" fill="#EE0033"/>
<path opacity="0.2" d="M122.715 156.992L117.091 176.456L128.331 182.937L134.149 163.593L122.715 156.992Z" fill="black"/>
<path d="M122.716 156.992C122.716 156.992 129.087 162.367 134.149 163.593C140.806 165.207 151.391 165.382 155.144 165.64C160.888 166.037 165.212 166.037 167.25 165.299C169.877 164.377 176.94 160.283 178.895 159.149C182.638 156.992 184.224 148.5 173.907 146.176C166.931 144.731 159.824 144.008 152.7 144.019L122.716 156.992Z" fill="#EE0033"/>
<path d="M186.252 154.493C185.933 155.296 185.716 156.135 185.606 156.992C185.308 157.883 185.241 158.835 185.413 159.758C186.109 160.922 187.213 161.786 188.511 162.183C189.446 162.396 190.415 162.412 191.356 162.229C192.298 162.047 193.191 161.67 193.978 161.123C195.887 159.989 197.325 158.606 200.036 157.831C201.976 157.413 203.803 156.583 205.393 155.397C206.896 154.189 208.906 150.851 206.029 150.086C203.152 149.321 196.892 152.041 191.203 152.29L186.252 154.493Z" fill="#37474F"/>
<path d="M186.251 150.934V155.203C186.428 155.681 186.733 156.102 187.133 156.417C187.533 156.733 188.013 156.932 188.519 156.992C188.979 157.064 189.45 157.013 189.884 156.844C190.576 156.581 191.175 156.122 191.609 155.522C192.043 154.923 192.293 154.209 192.327 153.47L192.493 150.934H186.251Z" fill="#FFA8A7"/>
<path d="M194.356 124.583C194.356 129.894 192.863 152.806 192.863 152.806C192.863 152.806 190.696 155.572 185.984 152.806L184.408 127.239L194.356 124.583Z" fill="#37474F"/>
<path d="M169.658 147.191L184.41 138.681C185.014 138.363 185.521 137.887 185.874 137.303C186.227 136.718 186.414 136.049 186.414 135.366C186.414 134.683 186.227 134.014 185.874 133.429C185.521 132.845 185.014 132.369 184.41 132.051L173.429 125.708C172.81 125.394 172.126 125.231 171.432 125.231C170.739 125.231 170.055 125.394 169.436 125.708L154.684 134.218C154.082 134.538 153.579 135.015 153.227 135.599C152.876 136.183 152.691 136.851 152.691 137.533C152.691 138.214 152.876 138.883 153.227 139.467C153.579 140.051 154.082 140.528 154.684 140.847L165.665 147.191C166.284 147.504 166.968 147.668 167.661 147.668C168.355 147.668 169.039 147.504 169.658 147.191Z" fill="#EE0033"/>
<path d="M169.658 147.191L184.41 138.681C185.014 138.363 185.521 137.887 185.874 137.303C186.227 136.718 186.414 136.049 186.414 135.366C186.414 134.683 186.227 134.014 185.874 133.429C185.521 132.845 185.014 132.369 184.41 132.051L173.429 125.708C172.81 125.394 172.126 125.231 171.432 125.231C170.739 125.231 170.055 125.394 169.436 125.708L154.684 134.218C154.082 134.538 153.579 135.015 153.227 135.599C152.876 136.183 152.691 136.851 152.691 137.533C152.691 138.214 152.876 138.883 153.227 139.467C153.579 140.051 154.082 140.528 154.684 140.847L165.665 147.191C166.284 147.504 166.968 147.668 167.661 147.668C168.355 147.668 169.039 147.504 169.658 147.191Z" fill="white"/>
<path d="M154.666 136.523L165.656 142.913C166.275 143.226 166.959 143.39 167.652 143.39C168.346 143.39 169.03 143.226 169.648 142.913L184.401 134.402C184.642 134.321 184.851 134.166 184.999 133.959C185.147 133.752 185.227 133.504 185.227 133.25C185.227 132.996 185.147 132.748 184.999 132.541C184.851 132.334 184.642 132.179 184.401 132.097L173.42 125.754C172.801 125.44 172.117 125.277 171.423 125.277C170.73 125.277 170.046 125.44 169.427 125.754L154.675 134.264C154.449 134.354 154.255 134.509 154.118 134.71C153.981 134.91 153.908 135.147 153.907 135.39C153.906 135.633 153.977 135.871 154.113 136.073C154.248 136.275 154.441 136.432 154.666 136.523Z" fill="#EE0033"/>
<path d="M163.654 80.0956L161.782 87.8037L153.751 88.2923L155.485 77.6061L163.654 80.0956Z" fill="#FFA8A7"/>
<path d="M171.445 74.2775C171.445 74.2775 172.321 77.5507 171.989 77.7259C171.409 77.8189 170.818 77.8189 170.237 77.7259L171.445 74.2775Z" fill="#F28F8F"/>
<path d="M169.953 63.859C171.253 65.3895 172.424 67.879 171.511 74.0011C170.515 80.695 169.279 81.4603 168.284 82.1149C166.993 82.9539 161.83 82.5114 160.317 81.4418C158.556 80.151 155.836 76.0941 155.191 72.0834C154.435 67.3626 156.021 62.1348 159.478 61.2496C164.356 59.9865 168.855 62.5774 169.953 63.859Z" fill="#FFA8A7"/>
<path d="M154.663 79.7639C155.908 81.0547 158.462 81.4143 160.075 81.7001C161.689 81.986 166.603 82.3179 168.06 78.805C169.517 75.2921 168.521 72.7658 170.319 71.9175C172.117 71.0693 173.887 70.5161 174.357 70.0735C174.828 69.6309 174.837 63.8499 170.033 60.8533C165.229 57.8568 157.872 57.1652 153.031 63.2506C149.371 67.9436 150.864 75.8084 154.663 79.7639Z" fill="#455A64"/>
<path d="M159.515 81.7561C160.75 81.8575 164.687 81.2397 165.877 79.617C167.066 77.9942 167.546 75.0991 167.721 73.5685C167.739 72.9686 167.961 72.3926 168.349 71.9352C168.738 71.4778 169.271 71.1662 169.86 71.0514C171.04 70.6734 173.668 69.3826 173.668 69.3826V68.6726C174.515 68.6185 175.365 68.6185 176.213 68.6726C176.766 68.7741 176.461 69.5946 175.06 70.3138C173.659 71.033 169.823 72.3976 169.224 72.8678C168.624 73.338 168.32 75.3019 167.813 77.4502C167.306 79.5985 165.969 82.6873 159.515 81.7561Z" fill="#37474F"/>
<path d="M170.579 90.4409L175.189 87.7947C175.631 86.4577 174.93 85.7847 173.667 85.8677C172.404 85.9506 172.801 84.7336 172.035 84.3924C171.03 83.9314 170.459 84.1896 170.016 83.9867C169.574 83.7839 169.371 83.2307 168.771 83.1754C166.144 82.9172 164.336 86.679 164.336 86.679L170.579 90.4409Z" fill="#F28F8F"/>
<path d="M139.276 124.334C139.276 124.334 159.643 114.238 163.202 112.588C166.761 110.937 172.321 108.586 175.271 108.586C176.429 108.684 177.512 109.195 178.323 110.027C179.134 110.858 179.619 111.954 179.688 113.113C179.726 114.892 179.624 116.671 179.384 118.433C173.791 120.282 168.076 121.74 162.28 122.794C153.807 124.224 139.276 124.334 139.276 124.334Z" fill="#37474F"/>
<path d="M141.487 118.507C141.487 122.684 141.099 127.036 142.842 130.097C144.585 133.158 154.017 140.239 162.905 138.755C168.714 137.778 185.956 129.839 185.956 129.839C185.956 129.839 194.318 126.769 194.355 124.584C194.411 121.366 194.189 116.839 186.896 117.032C180.258 117.207 160.646 121.292 160.646 121.292L141.487 118.507Z" fill="#455A64"/>
<path d="M147.187 85.342C150.294 82.0596 152.461 81.7738 153.982 82.1702C157.457 83.1648 160.821 84.5118 164.023 86.1902C164.023 86.1902 162.806 97.9736 168.568 101.376V119.733C168.568 119.733 168.393 121.725 165.885 123.707C163.672 125.45 158.666 127.211 152.691 126.722C145.592 126.132 141.498 118.507 141.498 118.507C141.498 118.507 141.314 103.487 142.319 97.5218C143.489 90.5606 146.09 86.476 147.187 85.342Z" fill="#455A64"/>
<path d="M168.558 102.261C168.558 102.261 165.073 99.4952 164.013 95.8993C164.013 95.8993 164.428 101.542 168.558 104.41V102.261Z" fill="#37474F"/>
<path d="M200.822 110.928C202.476 111 204.104 110.498 205.432 109.509C205.432 109.509 207.045 106.383 209.009 106.65C209.009 106.65 209.36 105.332 208.548 104.889C207.737 104.447 207.386 104.576 207.064 104.124C206.741 103.672 206.686 102.796 205.22 102.796C204.611 102.796 204.694 102.363 203.219 102.188C201.744 102.013 200.287 105.415 199.208 105.415L200.822 110.928Z" fill="#FFA8A7"/>
<path d="M164.013 86.1904C169.075 86.9741 170.91 88.477 172.754 90.1919C174.598 91.9069 185.883 103.266 185.883 103.266L199.548 105.23C200.266 105.811 200.792 106.595 201.06 107.48C201.613 109.075 201.115 110.827 200.589 111.251C200.589 111.251 187.045 112.053 184.38 111.555C181.716 111.057 168.512 102.28 168.512 102.28C167.251 101.331 166.193 100.139 165.401 98.7735C164.609 97.4082 164.099 95.8978 163.902 94.3318C163.045 88.7167 164.013 86.1904 164.013 86.1904Z" fill="#455A64"/>
<path d="M151.871 134.901L130.932 160.431C130.7 160.461 130.466 160.476 130.231 160.477C129.401 160.491 128.581 160.297 127.843 159.915L110.159 149.699L108.961 149.008C108.297 148.62 107.762 147.081 107.762 145.55V141.244C107.761 136.821 108.925 132.476 111.136 128.645C113.346 124.814 116.527 121.632 120.357 119.42L141.471 107.231L163.94 120.204L151.871 134.901Z" fill="#EE0033"/>
<g opacity="0.1">
<path opacity="0.1" d="M151.871 134.901L130.932 160.431C130.7 160.461 130.466 160.476 130.231 160.477C129.401 160.491 128.581 160.297 127.843 159.915L110.159 149.699L108.961 149.008C108.297 148.62 107.762 147.081 107.762 145.55V141.244C107.761 136.821 108.925 132.476 111.136 128.645C113.346 124.814 116.527 121.632 120.357 119.42L141.471 107.231L163.94 120.204L151.871 134.901Z" fill="black"/>
</g>
<path d="M144.65 143.706L163.911 120.231L141.432 107.258L120.327 119.447C117.596 121.022 115.187 123.099 113.228 125.57L144.65 143.706Z" fill="#EE0033"/>
<path d="M163.912 139.087C163.912 140.617 163.377 142.157 162.713 142.544L161.515 143.236L132.6 159.934C132.08 160.204 131.514 160.373 130.931 160.432C130.699 160.461 130.465 160.476 130.23 160.478V154.217C130.23 149.793 131.394 145.447 133.607 141.616C135.819 137.784 139.002 134.604 142.834 132.393L145.222 131.019L163.939 120.204L163.912 139.087Z" fill="#EE0033"/>
<g opacity="0.2">
<path opacity="0.2" d="M163.912 139.087C163.912 140.617 163.377 142.157 162.713 142.544L161.515 143.236L132.6 159.934C132.08 160.204 131.514 160.373 130.931 160.432C130.699 160.461 130.465 160.476 130.23 160.478V154.217C130.23 149.793 131.394 145.447 133.607 141.616C135.819 137.784 139.002 134.604 142.834 132.393L145.222 131.019L163.939 120.204L163.912 139.087Z" fill="black"/>
</g>
<path d="M170.108 170.711L181.43 170.675L197.621 161.316L181.753 172.786L169.813 172.952L170.108 170.711Z" fill="#E0E0E0"/>
<path d="M142.641 186.801C142.641 186.801 163.036 179.111 164.769 178.208C166.805 176.966 168.735 175.56 170.541 174.003C170.908 173.513 171.08 172.904 171.024 172.294C170.968 171.685 170.687 171.117 170.237 170.703C170.237 170.703 161.938 170.334 159.809 170.979C158.619 171.339 139.432 177.498 139.432 177.498L142.641 186.801Z" fill="#E0E0E0"/>
<path d="M141.728 178.208C140.041 176.76 138.344 177.36 137.939 179.545C137.778 180.745 137.902 181.966 138.303 183.108C138.704 184.251 139.369 185.282 140.244 186.119C141.931 187.566 143.637 186.967 144.042 184.782C144.2 183.581 144.073 182.361 143.671 181.218C143.269 180.076 142.603 179.045 141.728 178.208Z" fill="#455A64"/>
</svg>
