<svg xmlns="http://www.w3.org/2000/svg" version="1.1" xmlns:xlink="http://www.w3.org/1999/xlink" xmlns:svgjs="http://svgjs.dev/svgjs" width="1000" height="1000" viewBox="0 0 1000 1000"><rect width="1000" height="1000" fill="#4b91f1"></rect><g transform="matrix(0.7,0,0,0.7,150.0000000000001,106.25)"><svg viewBox="0 0 320 360" data-background-color="#4b91f1" preserveAspectRatio="xMidYMid meet" height="1125" width="1000" xmlns="http://www.w3.org/2000/svg" xmlns:xlink="http://www.w3.org/1999/xlink"><defs></defs><g id="tight-bounds" transform="matrix(1,0,0,1,0,0)"><svg viewBox="0 0 320 360" height="360" width="320"><g><svg></svg></g><g><svg viewBox="0 0 320 360" height="360" width="320"><g><path d="M20.961 227.22l3.726 4.658-1.863-6.056c-0.466-2.795-3.726 0.466-1.863 1.398M25.153 224.425c1.397 2.329 2.795 4.658 2.795 6.987 0 3.261 2.795 4.658 5.123 5.589-3.261-3.726-5.124-13.974-7.918-12.576M204.017 26.929c7.918 0 15.371-0.932 23.756 0.931 20.495 5.124 37.729 15.371 49.374 29.811l32.606 52.169c1.397 13.042 4.192 27.482 3.726 43.319 3.261 0 2.795-4.658 6.521-5.59-3.726 9.316-5.59 20.961-6.521 34.469-2.329-7.453 0-18.632 0.466-24.687-3.261 5.124-5.124 1.397-5.124-0.932 0.466-3.726-1.397-3.261-2.795-4.658-5.124-4.658-8.384-9.782-12.11-17.7 2.329-6.055 2.795-14.905-4.658-19.563-2.329-1.397-5.124-3.726-6.521-7.453-1.863-5.124-5.124-11.179-4.193-19.097 0.466-2.329-6.987 5.124-11.179 1.863-18.166-12.576-36.332-27.016-58.224-39.127-11.645 0-20.029-4.192-24.221-9.316-3.726-4.658-0.932-10.713 4.658-11.179 3.261 0 6.987-0.932 9.782 0.932 0.466-1.863 2.329-4.192 4.657-4.192M157.904 16.215l0.932 0.466c4.658 0.932 6.987 7.453 12.11 5.124 0 3.261 0.466 6.521-0.466 8.85-1.397 3.726-5.59 3.726-8.85 3.726-31.208-1.863-49.374 11.179-68.471 22.358-5.124 3.261-10.713 5.59-14.906 9.782-20.029 18.632-41.921 35.866-47.045 70.335l-4.192 38.195c-0.466 4.192-5.124 8.384-4.192 13.508l3.26 22.824c-3.261-3.261-5.124 0.932-4.192 2.795 0.466 1.397 2.329 6.055 5.124 1.863 3.726 6.987 7.453 20.495 12.576 26.55 15.837 18.632 36.332 35.4 53.101 52.169 4.192-0.932 7.453-0.932 8.384-3.727 1.397 2.795-1.397 5.59-3.726 6.056 7.453 4.658 15.837 8.85 27.016 9.781 14.44 0.932 27.948 3.261 40.524 6.522 6.521-1.863 13.042-2.795 20.029-3.261 2.329 0 3.726-3.726 6.521-4.658l0.466-4.658c2.795 4.192 2.329-1.397 0.466-4.192 3.261 2.795 4.192 5.124 5.589 6.987 0-1.397 3.726-6.521 3.727-0.466l0.931-6.055c1.397-0.932 1.863 5.124 3.261 0.931 1.397-4.192 4.192-0.932 6.987-2.329-0.932 1.863-0.466 5.59 2.794 3.261l3.727-3.261c2.329 5.59 6.055 3.261 7.918 2.329 20.495-13.042 40.99-28.413 60.553-43.784l-0.466 6.055 2.329-7.453c2.329 2.329 4.192 0.466 5.124-0.931 2.795-4.658 6.521-9.316 12.577-13.508-7.453 20.029-16.303 35.866-27.482 48.908l-4.658 5.59c0 3.261-0.932 7.453-4.658 7.918-1.863 0.466-5.59-0.932-8.384 1.863-1.397 1.863 3.261 5.59-0.466 2.795-3.261-2.329-6.521 0-10.248 0.932-2.795 0.932 1.863 3.726 2.795 5.589 0.932 1.863 1.863 3.726 1.398 6.056l-5.124-5.59c-6.055 3.261-9.782 9.316-14.906 13.974-2.329 1.863-1.397 5.124-1.397 7.918-3.261 0-6.987-0.932-8.85 0.932-1.397 1.863-0.932 4.658-0.932 7.453-4.658-0.466-5.124-7.453-9.315-6.056-4.192 0.932-8.85 1.397-12.577 3.727 2.795 5.59-4.658 2.329-3.726 3.26-6.987-4.192-13.042-7.453-20.495-4.658-15.837-5.124-35.4-2.795-49.84-0.931 0-2.329 0.466-4.658-0.466-5.124-0.932 2.329-3.726 1.397-3.26 1.397-8.85-6.055-17.7-9.782-27.016-14.905-8.384 0.932-16.303-3.261-18.632-5.59-6.521-6.055-13.974-2.795-20.029-4.192-13.042-3.261-17.7-16.769-19.098-26.084-0.932-4.658-4.658-6.521-6.055-6.056-6.055-19.563-15.371-37.263-22.824-55.429-1.863-4.658-1.397-9.316-1.397-14.44 2.329 0.932 4.658 0.466 4.192-2.794-2.329-15.371-7.918-27.016-13.974-38.195 3.261-15.837 3.726-34.469 11.179-48.443 6.521-12.576 18.632-19.098 27.016-29.811 2.795-3.726 2.795-8.85 5.59-12.11 9.316-9.316 18.632-19.098 28.879-27.482 4.658-3.726 10.247 0 17.234-1.397 2.329-8.384 11.645-15.837 20.495-13.508 3.726 0.932 11.179-8.85 13.508-9.782 3.726-1.397 1.863 3.726 1.863 6.987 8.85-6.987 20.961-10.713 32.14-14.906" fill="#ffffff" data-fill-palette-color="tertiary"></path></g><g transform="matrix(1,0,0,1,64,167.5203119922002)"><svg viewBox="0 0 192 24.95937601559961" height="24.95937601559961" width="192"><g><svg viewBox="0 0 192 24.95937601559961" height="24.95937601559961" width="192"><g><svg viewBox="0 0 192 24.95937601559961" height="24.95937601559961" width="192"><g><svg viewBox="0 0 192 24.95937601559961" height="24.95937601559961" width="192"><g><svg viewBox="0 0 192 24.95937601559961" height="24.95937601559961" width="192"><g><svg viewBox="0 0 192 24.95937601559961" height="24.95937601559961" width="192"><g transform="matrix(1,0,0,1,0,0)"><svg width="192" viewBox="1.0299999713897705 -37.599998474121094 300.4700012207031 39.05999755859375" height="24.95937601559961" data-palette-color="#ffffff"><path d="M1.03-18.26L1.03-18.26Q1.03-21.63 1.78-24.44 2.54-27.25 3.8-29.2 5.05-31.15 6.82-32.67 8.59-34.18 10.47-35.1 12.35-36.01 14.51-36.6 16.67-37.18 18.55-37.39 20.43-37.6 22.36-37.6L22.36-37.6Q23.78-37.6 25.13-37.48 26.49-37.35 28.19-37.05 29.88-36.74 31.36-36.11 32.84-35.47 34.19-34.56 35.55-33.64 36.55-32.19 37.55-30.74 37.99-28.91L37.99-28.91Q38.11-28.2 38.48-24.9L38.48-24.9Q38.38-24.17 36.91-24.17L36.91-24.17Q34.81-24.17 30.81-24.27 26.81-24.37 24.8-24.37L24.8-24.37Q24.51-24.46 24.34-24.76 24.17-25.05 24.11-25.39 24.05-25.73 23.91-26.12 23.78-26.51 23.57-26.82 23.36-27.12 22.84-27.33 22.31-27.54 21.53-27.54L21.53-27.54Q20.51-27.54 19.7-27.19 18.9-26.83 18.38-26.32 17.87-25.81 17.5-24.93 17.14-24.05 16.96-23.33 16.77-22.61 16.67-21.5 16.58-20.39 16.56-19.75 16.55-19.12 16.55-18.07L16.55-18.07Q16.55-17.75 16.58-17.29 16.6-16.82 16.6-16.65L16.6-16.65 16.6-15.92Q16.6-15.14 16.63-14.62 16.65-14.11 16.76-13.31 16.87-12.5 17.07-11.95 17.26-11.4 17.64-10.78 18.02-10.16 18.57-9.78 19.12-9.4 19.95-9.14 20.78-8.89 21.83-8.89L21.83-8.89Q24.54-8.89 26.27-9.42L26.27-9.42 26.27-12.4 25.2-12.4 25.2-12.35 23.44-12.35Q23.24-12.35 22.74-12.33 22.24-12.3 21.92-12.3L21.92-12.3 21.04-13.28 21.04-20.02Q21.04-20.65 21.92-21.39L21.92-21.39 23.68-21.39Q25.51-21.39 28.13-21.34 30.74-21.29 32.13-21.29L32.13-21.29 34.08-21.29Q35.5-21.29 36.29-21.26 37.08-21.24 38.06-21.03 39.04-20.83 39.36-20.41L39.36-20.41Q39.36-17.21 39.21-11.08 39.06-4.96 39.06-2.2L39.06-2.2Q39.06-2.12 39.09-1.97 39.11-1.81 39.11-1.71L39.11-1.71 39.11-1.17Q38.28-0.2 33.69 0.54 29.1 1.27 25.98 1.27L25.98 1.27 25.34 1.27Q24.66 1.27 23.32 1.37 21.97 1.46 21.29 1.46L21.29 1.46Q11.45 1.46 6.24-3.8 1.03-9.06 1.03-18.26ZM58.54-33.5L61.03-33.5Q61.2-33.54 61.58-33.58 61.96-33.62 62.06-33.64L62.06-33.64 64.96-18.77 68.77-33.69 85.94-33.69Q86.62-33.69 86.62-30.81L86.62-30.81 86.62-2.05Q86.57-1.66 86.4-1.42 86.23-1.17 85.9-1.09 85.57-1 85.39-0.99 85.2-0.98 84.76-0.98L84.76-0.98Q83.23-0.98 80.09-0.93 76.95-0.88 75.39-0.88L75.39-0.88Q74.17-1.64 74.17-6.49L74.17-6.49Q74.17-7.71 74.22-9.68 74.27-11.65 74.27-12.6L74.27-12.6 74.27-14.75Q74.27-14.92 74.24-15.3 74.22-15.67 74.22-15.87L74.22-15.87Q74.22-16.7 74.31-18.55L74.31-18.55 74.31-16.7Q73.97-15.26 73-12.3 72.02-9.35 71.68-7.91L71.68-7.91 70.21-1.66Q69.82-0.98 67.77-0.98L67.77-0.98Q66.77-0.98 65.17-1.03 63.57-1.07 62.74-1.07L62.74-1.07Q62.5-1.07 61.91-1.05 61.33-1.03 61.18-1.03L61.18-1.03Q60.4-1.03 60.06-1.22 59.71-1.42 59.57-2L59.57-2Q57.27-12.18 56.39-16.41L56.39-16.41 55.52-20.61Q55.17-13.5 55.17-5.57L55.17-5.57 55.17-1.27 43.65-1.27Q43.65-1.42 43.72-1.9 43.8-2.39 43.8-2.44L43.8-2.44Q43.6-7.13 43.6-14.01L43.6-14.01Q43.6-16.09 43.58-19.54 43.55-23 43.55-24.32L43.55-24.32 43.55-32.96Q43.55-33.28 43.65-33.44 43.75-33.59 44.14-33.89L44.14-33.89 46.38-33.89Q47.6-33.89 48.14-33.94L48.14-33.94Q50.61-33.94 54.14-33.72 57.66-33.5 58.54-33.5L58.54-33.5ZM74.31-18.75L74.31-18.7 74.31-18.75ZM110.15-6.05L102.63-6.05Q102.46-5.49 102.3-4.58 102.14-3.66 102.01-3.14 101.87-2.61 101.56-2.04 101.24-1.46 100.59-1.2 99.95-0.93 98.92-0.93L98.92-0.93 88.37-0.93 88.37-1.76Q89.67-5.64 92.15-13.67 94.62-21.7 95.99-25.83L95.99-25.83 95.99-25.78Q96.82-28.15 98.43-33.2L98.43-33.2Q98.46-33.25 98.51-33.33L98.51-33.33Q98.73-33.69 98.92-33.89L98.92-33.89 112.1-33.79Q115.47-33.79 115.82-33.2L115.82-33.2 115.82-32.57Q115.86-32.35 116.35-31.45L116.35-31.45Q118.72-24.19 119.82-20.9L119.82-20.9 119.82-20.61Q119.92-19.9 120.26-18.99 120.6-18.09 121.08-17.05 121.55-16.02 121.75-15.43L121.75-15.43 122.72-11.91Q123.58-9.08 125.24-4.35L125.24-4.35 125.24-4.39 125.24-3.91Q125.31-3.56 125.61-2.98 125.9-2.39 125.97-2.15L125.97-2.15Q125.97-1.46 125.69-1.27 125.41-1.07 124.6-1.07L124.6-1.07 113.28-1.07Q112.86-1.12 112.74-1.15 112.62-1.17 112.36-1.25 112.1-1.32 111.99-1.44 111.88-1.56 111.86-1.76L111.86-1.76 110.93-5.47Q110.83-5.93 110.74-5.99 110.64-6.05 110.15-6.05L110.15-6.05ZM103.8-14.65L103.8-14.75 103.8-14.65ZM109.17-17.68L109.17-17.68Q109.03-18.36 108.75-19.89 108.47-21.41 108.2-22.55 107.93-23.68 107.61-24.66L107.61-24.66 107.61-25.83Q107.42-26.34 106.93-26.56L106.93-26.56 106.93-26.51Q106.34-26.39 105.76-23.24L105.76-23.24 105.76-22.07Q105.71-21.9 105.54-21.75 105.37-21.61 105.37-21.58L105.37-21.58Q104.56-18.02 104.05-15.82L104.05-15.82Q104.05-15.58 103.93-14.97 103.8-14.36 103.8-14.26L103.8-14.26 109.86-14.26Q109.86-14.89 109.42-16.55L109.42-16.55 109.42-17.09Q109.39-17.16 109.28-17.37 109.17-17.58 109.17-17.68ZM140.47-0.93L127.09-0.93 127.09-33.01Q127.12-33.2 127.48-33.36 127.85-33.52 127.92-33.59L127.92-33.59 141.06-33.59 141.06-1.81Q140.93-1.29 140.83-1.11 140.72-0.93 140.47-0.93L140.47-0.93ZM168.5-0.98L146.08-0.98Q146.01-1.07 145.85-1.2 145.69-1.32 145.5-1.66L145.5-1.66 145.5-12.21Q145.5-14.28 145.67-18.58 145.84-22.88 145.84-25.1L145.84-25.1Q145.84-25.59 145.74-27.17 145.64-28.76 145.64-29.69L145.64-29.69Q145.64-33.13 146.47-33.89L146.47-33.89Q151.55-33.79 154.04-33.79L154.04-33.79 156.39-33.79Q157.22-33.79 157.66-33.74L157.66-33.74Q157.7-33.79 157.9-33.79L157.9-33.79Q157.95-33.79 158.33-33.74 158.71-33.69 158.93-33.69L158.93-33.69Q159.54-33.62 159.95-32.67L159.95-32.67 159.95-32.32Q159.95-32.06 159.93-31.54 159.9-31.03 159.9-30.76L159.9-30.76 159.9-29.69Q159.88-29.57 159.6-29.26 159.32-28.96 159.32-28.76L159.32-28.76 159.32-10.94 169.67-10.94Q170.06-10.94 170.25-10.91 170.45-10.89 170.64-10.69 170.84-10.5 170.84-10.11L170.84-10.11 170.84-1.95Q170.64-0.98 168.5-0.98L168.5-0.98ZM188.51-33.5L191-33.5Q191.17-33.54 191.55-33.58 191.93-33.62 192.03-33.64L192.03-33.64 194.93-18.77 198.74-33.69 215.91-33.69Q216.59-33.69 216.59-30.81L216.59-30.81 216.59-2.05Q216.54-1.66 216.37-1.42 216.2-1.17 215.87-1.09 215.54-1 215.36-0.99 215.17-0.98 214.73-0.98L214.73-0.98Q213.2-0.98 210.06-0.93 206.92-0.88 205.36-0.88L205.36-0.88Q204.14-1.64 204.14-6.49L204.14-6.49Q204.14-7.71 204.19-9.68 204.24-11.65 204.24-12.6L204.24-12.6 204.24-14.75Q204.24-14.92 204.21-15.3 204.19-15.67 204.19-15.87L204.19-15.87Q204.19-16.7 204.28-18.55L204.28-18.55 204.28-16.7Q203.94-15.26 202.97-12.3 201.99-9.35 201.65-7.91L201.65-7.91 200.18-1.66Q199.79-0.98 197.74-0.98L197.74-0.98Q196.74-0.98 195.14-1.03 193.54-1.07 192.71-1.07L192.71-1.07Q192.47-1.07 191.88-1.05 191.3-1.03 191.15-1.03L191.15-1.03Q190.37-1.03 190.03-1.22 189.68-1.42 189.54-2L189.54-2Q187.24-12.18 186.36-16.41L186.36-16.41 185.49-20.61Q185.14-13.5 185.14-5.57L185.14-5.57 185.14-1.27 173.62-1.27Q173.62-1.42 173.69-1.9 173.77-2.39 173.77-2.44L173.77-2.44Q173.57-7.13 173.57-14.01L173.57-14.01Q173.57-16.09 173.55-19.54 173.52-23 173.52-24.32L173.52-24.32 173.52-32.96Q173.52-33.28 173.62-33.44 173.72-33.59 174.11-33.89L174.11-33.89 176.35-33.89Q177.58-33.89 178.11-33.94L178.11-33.94Q180.58-33.94 184.11-33.72 187.63-33.5 188.51-33.5L188.51-33.5ZM204.28-18.75L204.28-18.7 204.28-18.75ZM236.65-33.5L239.15-33.5Q239.32-33.54 239.69-33.58 240.07-33.62 240.17-33.64L240.17-33.64 243.08-18.77 246.88-33.69 264.05-33.69Q264.73-33.69 264.73-30.81L264.73-30.81 264.73-2.05Q264.68-1.66 264.51-1.42 264.34-1.17 264.01-1.09 263.68-1 263.5-0.99 263.32-0.98 262.88-0.98L262.88-0.98Q261.34-0.98 258.2-0.93 255.06-0.88 253.5-0.88L253.5-0.88Q252.28-1.64 252.28-6.49L252.28-6.49Q252.28-7.71 252.33-9.68 252.38-11.65 252.38-12.6L252.38-12.6 252.38-14.75Q252.38-14.92 252.35-15.3 252.33-15.67 252.33-15.87L252.33-15.87Q252.33-16.7 252.43-18.55L252.43-18.55 252.43-16.7Q252.08-15.26 251.11-12.3 250.13-9.35 249.79-7.91L249.79-7.91 248.32-1.66Q247.93-0.98 245.88-0.98L245.88-0.98Q244.88-0.98 243.28-1.03 241.68-1.07 240.85-1.07L240.85-1.07Q240.61-1.07 240.02-1.05 239.44-1.03 239.29-1.03L239.29-1.03Q238.51-1.03 238.17-1.22 237.83-1.42 237.68-2L237.68-2Q235.39-12.18 234.51-16.41L234.51-16.41 233.63-20.61Q233.29-13.5 233.29-5.57L233.29-5.57 233.29-1.27 221.76-1.27Q221.76-1.42 221.84-1.9 221.91-2.39 221.91-2.44L221.91-2.44Q221.71-7.13 221.71-14.01L221.71-14.01Q221.71-16.09 221.69-19.54 221.66-23 221.66-24.32L221.66-24.32 221.66-32.96Q221.66-33.28 221.76-33.44 221.86-33.59 222.25-33.89L222.25-33.89 224.5-33.89Q225.72-33.89 226.25-33.94L226.25-33.94Q228.72-33.94 232.25-33.72 235.78-33.5 236.65-33.5L236.65-33.5ZM252.43-18.75L252.43-18.7 252.43-18.75ZM267.76-16.21L267.76-17.68 267.71-18.21Q268.17-22.19 268.59-23.75L268.59-23.75Q269.54-27.42 272-29.88L272-29.88 272.59-30.47Q273.76-31.84 276.15-32.81L276.15-32.81 277.08-32.81Q279.47-33.81 284.94-34.67L284.94-34.67Q286.31-34.67 287.81-34.46 289.31-34.25 291.14-33.78 292.98-33.3 294.67-32.26 296.37-31.23 297.49-29.79L297.49-29.79 297.49-29.1Q301.5-24.1 301.5-17.87L301.5-17.87Q301.5-10.86 298.27-6.45L298.27-6.45 297.3-5.22Q296.17-3.83 294.5-2.83 292.83-1.83 290.95-1.31 289.07-0.78 287.35-0.56 285.63-0.34 283.92-0.34L283.92-0.34Q281.4-0.34 279.12-0.94 276.84-1.54 274.85-2.81 272.86-4.08 271.34-5.93 269.83-7.79 268.89-10.41 267.95-13.04 267.76-16.21L267.76-16.21ZM281.18-18.55L281.18-17.48Q281.18-8.89 284.46-8.89L284.46-8.89Q285.36-8.89 286.03-9.23 286.7-9.57 287.12-10.28 287.53-10.99 287.8-11.72 288.07-12.45 288.18-13.55 288.29-14.65 288.32-15.48 288.36-16.31 288.36-17.48L288.36-17.48 288.36-18.36Q288.36-19.63 288.21-20.8 288.07-21.97 287.71-23.16 287.36-24.34 286.63-25.06 285.9-25.78 284.85-25.78L284.85-25.78Q281.18-25.78 281.18-18.55L281.18-18.55Z" opacity="1" transform="matrix(1,0,0,1,0,0)" fill="#ffffff" class="undefined-text-0" data-fill-palette-color="primary" id="text-0"></path></svg></g></svg></g></svg></g></svg></g><g></g></svg></g></svg></g></svg></g></svg></g></svg><rect width="320" height="360" fill="none" stroke="none" visibility="hidden"></rect></g></svg></g></svg>